<svg xmlns="http://www.w3.org/2000/svg" xmlns:xlink="http://www.w3.org/1999/xlink" width="500" zoomAndPan="magnify" viewBox="0 0 375 225" height="300" preserveAspectRatio="xMidYMid meet" version="1.0"><defs><g/></defs><g fill="#64a093" fill-opacity="1"><g transform="translate(21.765761, 183.42303)"><g><path d="M 181.8125 32.640625 C 165.925781 32.640625 152.914062 27.578125 142.78125 17.453125 C 135.28125 9.941406 130.335938 0.5 127.953125 -10.875 C 116.078125 -1.875 101.507812 2.625 84.25 2.625 C 70.613281 2.625 58.195312 -0.34375 47 -6.28125 C 35.800781 -12.226562 27.039062 -20.390625 20.71875 -30.765625 C 14.40625 -41.148438 11.25 -52.847656 11.25 -65.859375 C 11.25 -78.867188 14.40625 -90.59375 20.71875 -101.03125 C 27.039062 -111.476562 35.769531 -119.578125 46.90625 -125.328125 C 58.039062 -131.085938 70.488281 -133.96875 84.25 -133.96875 C 101.507812 -133.96875 116.707031 -129.710938 129.84375 -121.203125 L 133.59375 -94.75 L 131.90625 -94.75 C 128.144531 -109.257812 119.640625 -119.140625 106.390625 -124.390625 C 99.878906 -127.015625 92.5 -128.328125 84.25 -128.328125 C 67.363281 -128.328125 53.320312 -122.445312 42.125 -110.6875 C 30.925781 -98.9375 25.328125 -84.023438 25.328125 -65.953125 C 25.328125 -47.878906 30.957031 -32.898438 42.21875 -21.015625 C 53.476562 -9.128906 67.488281 -3.125 84.25 -3 C 92.375 -3 100.125 -4.4375 107.5 -7.3125 C 114.882812 -10.1875 121.203125 -14.191406 126.453125 -19.328125 L 126.453125 -52.53125 C 126.453125 -55.28125 125.640625 -57.375 124.015625 -58.8125 C 122.390625 -60.257812 120.078125 -60.984375 117.078125 -60.984375 L 114.078125 -60.984375 L 114.078125 -62.859375 L 150.84375 -62.859375 L 150.84375 -60.984375 L 148.03125 -60.984375 C 144.90625 -60.984375 142.53125 -60.257812 140.90625 -58.8125 C 139.28125 -57.375 138.53125 -55.28125 138.65625 -52.53125 L 138.65625 -23.640625 C 139.40625 -3.878906 145.847656 10.253906 157.984375 18.765625 C 166.484375 24.765625 177.488281 27.765625 191 27.765625 C 196.625 27.765625 202.753906 27.203125 209.390625 26.078125 L 209.578125 27.953125 C 199.566406 31.078125 190.3125 32.640625 181.8125 32.640625 Z M 181.8125 32.640625 "/></g></g></g><g fill="#64a093" fill-opacity="1"><g transform="translate(80.494331, 109.207506)"><g><path d="M 2.171875 -3.9375 L 2.171875 0 L 1.0625 0 L 1.0625 -8.65625 L 6.875 -8.65625 L 6.875 -7.671875 L 2.171875 -7.671875 L 2.171875 -4.921875 L 6.296875 -4.921875 L 6.296875 -3.9375 Z M 2.171875 -3.9375 "/></g></g></g><g fill="#64a093" fill-opacity="1"><g transform="translate(93.675535, 109.207506)"><g><path d="M 6.359375 -4.28125 C 6.648438 -4.15625 6.882812 -4 7.0625 -3.8125 C 7.25 -3.625 7.367188 -3.425781 7.421875 -3.21875 C 7.484375 -3.019531 7.519531 -2.804688 7.53125 -2.578125 C 7.550781 -2.359375 7.554688 -2.132812 7.546875 -1.90625 C 7.546875 -1.6875 7.546875 -1.472656 7.546875 -1.265625 C 7.554688 -1.066406 7.601562 -0.878906 7.6875 -0.703125 C 7.769531 -0.523438 7.894531 -0.378906 8.0625 -0.265625 L 8.0625 0 L 6.71875 0 C 6.5625 -0.375 6.484375 -0.84375 6.484375 -1.40625 L 6.484375 -2.1875 C 6.484375 -2.71875 6.367188 -3.109375 6.140625 -3.359375 C 5.910156 -3.609375 5.550781 -3.734375 5.0625 -3.734375 L 2.203125 -3.734375 L 2.203125 0 L 1.109375 0 L 1.109375 -8.65625 L 5.09375 -8.65625 C 5.945312 -8.65625 6.597656 -8.457031 7.046875 -8.0625 C 7.492188 -7.664062 7.71875 -7.09375 7.71875 -6.34375 C 7.71875 -5.84375 7.613281 -5.429688 7.40625 -5.109375 C 7.195312 -4.785156 6.847656 -4.507812 6.359375 -4.28125 Z M 6.578125 -6.1875 C 6.578125 -6.488281 6.53125 -6.738281 6.4375 -6.9375 C 6.351562 -7.144531 6.226562 -7.296875 6.0625 -7.390625 C 5.90625 -7.492188 5.734375 -7.566406 5.546875 -7.609375 C 5.359375 -7.648438 5.132812 -7.671875 4.875 -7.671875 L 2.203125 -7.671875 L 2.203125 -4.703125 L 4.875 -4.703125 C 5.46875 -4.703125 5.898438 -4.820312 6.171875 -5.0625 C 6.441406 -5.300781 6.578125 -5.675781 6.578125 -6.1875 Z M 6.578125 -6.1875 "/></g></g></g><g fill="#64a093" fill-opacity="1"><g transform="translate(108.176107, 109.207506)"><g><path d="M 8.8125 -4.203125 C 8.8125 -3.578125 8.710938 -2.988281 8.515625 -2.4375 C 8.328125 -1.894531 8.054688 -1.421875 7.703125 -1.015625 C 7.347656 -0.617188 6.90625 -0.304688 6.375 -0.078125 C 5.84375 0.148438 5.257812 0.265625 4.625 0.265625 C 3.375 0.265625 2.363281 -0.148438 1.59375 -0.984375 C 0.832031 -1.816406 0.453125 -2.910156 0.453125 -4.265625 C 0.453125 -5.609375 0.832031 -6.695312 1.59375 -7.53125 C 2.363281 -8.375 3.375 -8.796875 4.625 -8.796875 C 5.894531 -8.796875 6.910156 -8.375 7.671875 -7.53125 C 8.429688 -6.695312 8.8125 -5.585938 8.8125 -4.203125 Z M 4.625 -7.828125 C 3.707031 -7.828125 2.960938 -7.5 2.390625 -6.84375 C 1.828125 -6.1875 1.546875 -5.320312 1.546875 -4.25 C 1.546875 -3.1875 1.828125 -2.328125 2.390625 -1.671875 C 2.960938 -1.023438 3.707031 -0.703125 4.625 -0.703125 C 5.539062 -0.703125 6.285156 -1.023438 6.859375 -1.671875 C 7.429688 -2.316406 7.71875 -3.160156 7.71875 -4.203125 C 7.71875 -5.304688 7.429688 -6.1875 6.859375 -6.84375 C 6.296875 -7.5 5.550781 -7.828125 4.625 -7.828125 Z M 4.625 -7.828125 "/></g></g></g><g fill="#64a093" fill-opacity="1"><g transform="translate(123.342969, 109.207506)"><g><path d="M 7.671875 -8.65625 L 7.671875 0 L 6.421875 0 L 1.953125 -7.015625 L 1.953125 0 L 0.90625 0 L 0.90625 -8.65625 L 2.109375 -8.65625 L 6.625 -1.578125 L 6.625 -8.65625 Z M 7.671875 -8.65625 "/></g></g></g><g fill="#64a093" fill-opacity="1"><g transform="translate(137.843541, 109.207506)"><g><path d="M 4.203125 -7.671875 L 4.203125 0 L 3.09375 0 L 3.09375 -7.671875 L 0.25 -7.671875 L 0.25 -8.65625 L 7.046875 -8.65625 L 7.046875 -7.671875 Z M 4.203125 -7.671875 "/></g></g></g><g fill="#64a093" fill-opacity="1"><g transform="translate(151.024742, 109.207506)"><g><path d="M 3.375 -3.703125 L 3.375 -2.84375 L 0.546875 -2.84375 L 0.546875 -3.703125 Z M 3.375 -3.703125 "/></g></g></g><g fill="#64a093" fill-opacity="1"><g transform="translate(160.900917, 109.207506)"><g><path d="M 2.171875 -3.9375 L 2.171875 -0.96875 L 7.28125 -0.96875 L 7.28125 0 L 1.0625 0 L 1.0625 -8.65625 L 7.0625 -8.65625 L 7.0625 -7.671875 L 2.171875 -7.671875 L 2.171875 -4.921875 L 6.890625 -4.921875 L 6.890625 -3.9375 Z M 2.171875 -3.9375 "/></g></g></g><g fill="#64a093" fill-opacity="1"><g transform="translate(174.748397, 109.207506)"><g><path d="M 7.671875 -8.65625 L 7.671875 0 L 6.421875 0 L 1.953125 -7.015625 L 1.953125 0 L 0.90625 0 L 0.90625 -8.65625 L 2.109375 -8.65625 L 6.625 -1.578125 L 6.625 -8.65625 Z M 7.671875 -8.65625 "/></g></g></g><g fill="#64a093" fill-opacity="1"><g transform="translate(189.248965, 109.207506)"><g><path d="M 1.0625 0 L 1.0625 -8.65625 L 4.390625 -8.65625 C 5.484375 -8.65625 6.34375 -8.269531 6.96875 -7.5 C 7.601562 -6.726562 7.921875 -5.675781 7.921875 -4.34375 C 7.921875 -2.988281 7.601562 -1.925781 6.96875 -1.15625 C 6.34375 -0.382812 5.484375 0 4.390625 0 Z M 2.15625 -0.96875 L 4.203125 -0.96875 C 5.054688 -0.96875 5.703125 -1.253906 6.140625 -1.828125 C 6.585938 -2.398438 6.8125 -3.234375 6.8125 -4.328125 C 6.8125 -5.429688 6.585938 -6.265625 6.140625 -6.828125 C 5.703125 -7.390625 5.054688 -7.671875 4.203125 -7.671875 L 2.15625 -7.671875 Z M 2.15625 -0.96875 "/></g></g></g><g fill="#64a093" fill-opacity="1"><g transform="translate(182.889491, 173.293289)"><g><path d="M 147.53125 -2.03125 L 149.953125 -2.03125 L 149.953125 0 L 105.84375 0 L 105.84375 -2.03125 L 108.46875 -2.03125 C 111.84375 -2.03125 114.773438 -3.207031 117.265625 -5.5625 C 119.765625 -7.925781 121.148438 -10.863281 121.421875 -14.375 L 121.421875 -66.984375 L 43.109375 -66.984375 L 43.109375 -14.171875 C 43.109375 4.722656 38.519531 17.40625 29.34375 23.875 C 25.164062 26.84375 19.769531 29.070312 13.15625 30.5625 L 12.140625 28.734375 C 18.210938 25.492188 22.695312 20.5 25.59375 13.75 C 28.5 7.007812 29.953125 -2.296875 29.953125 -14.171875 L 29.953125 -127.09375 C 29.953125 -130.601562 28.671875 -133.570312 26.109375 -136 C 23.546875 -138.425781 20.507812 -139.640625 17 -139.640625 L 14.578125 -139.640625 L 14.578125 -141.65625 L 58.6875 -141.65625 L 58.6875 -139.640625 L 56.0625 -139.640625 C 52.550781 -139.640625 49.546875 -138.425781 47.046875 -136 C 44.554688 -133.570312 43.242188 -130.601562 43.109375 -127.09375 L 43.109375 -73.0625 L 121.421875 -73.0625 L 121.421875 -123.453125 C 121.554688 -140.722656 125.398438 -152.726562 132.953125 -159.46875 C 137.546875 -163.519531 143.753906 -166.421875 151.578125 -168.171875 L 152.59375 -166.359375 C 146.519531 -163.117188 142 -158.125 139.03125 -151.375 C 136.0625 -144.625 134.578125 -135.316406 134.578125 -123.453125 L 134.578125 -14.765625 C 134.578125 -11.265625 135.820312 -8.265625 138.3125 -5.765625 C 140.8125 -3.273438 143.882812 -2.03125 147.53125 -2.03125 Z M 147.53125 -2.03125 "/></g></g></g></svg>