<svg xmlns="http://www.w3.org/2000/svg" xmlns:xlink="http://www.w3.org/1999/xlink" width="500" zoomAndPan="magnify" viewBox="0 0 375 149.999998" height="200" preserveAspectRatio="xMidYMid meet" version="1.0"><defs><filter x="0%" y="0%" width="100%" height="100%" id="c7f412f38e"><feColorMatrix values="0 0 0 0 1 0 0 0 0 1 0 0 0 0 1 0 0 0 1 0" color-interpolation-filters="sRGB"/></filter><g/><mask id="2e0886713b"><g filter="url(#c7f412f38e)"><rect x="-37.5" width="450" fill="#000000" y="-15" height="179.999997" fill-opacity="0.6"/></g></mask><clipPath id="1463fa3617"><path d="M 315 22 L 358.800781 22 L 358.800781 96 L 315 96 Z M 315 22 " clip-rule="nonzero"/></clipPath><clipPath id="f8155afe83"><rect x="0" width="359" y="0" height="123"/></clipPath></defs><g mask="url(#2e0886713b)"><g transform="matrix(1, 0, 0, 1, 6, -0.000000000000007527)"><g clip-path="url(#f8155afe83)"><g fill="#77aca1" fill-opacity="1"><g transform="translate(0.498868, 95.70613)"><g><path d="M 5.40625 -73.046875 L 36.984375 -73.046875 L 36.984375 -62.140625 L 21.5625 -62.140625 L 21.5625 -43.734375 L 35 -43.734375 L 35 -32.46875 L 21.5625 -32.46875 L 21.5625 0 L 5.40625 0 Z M 5.40625 -73.046875 "/></g></g></g><g fill="#77aca1" fill-opacity="1"><g transform="translate(32.962668, 95.70613)"><g><path d="M 5.40625 -73.046875 L 25.515625 -73.046875 C 33.515625 -73.046875 39.554688 -71.632812 43.640625 -68.8125 C 47.734375 -65.988281 49.78125 -60.96875 49.78125 -53.75 C 49.78125 -48.882812 49.148438 -45.003906 47.890625 -42.109375 C 46.628906 -39.222656 44.285156 -36.972656 40.859375 -35.359375 L 50.859375 0 L 34.1875 0 L 26.15625 -32.734375 L 21.5625 -32.734375 L 21.5625 0 L 5.40625 0 Z M 26.0625 -42.03125 C 29.3125 -42.03125 31.582031 -42.882812 32.875 -44.59375 C 34.164062 -46.3125 34.8125 -48.882812 34.8125 -52.3125 C 34.8125 -55.613281 34.207031 -58.09375 33 -59.75 C 31.800781 -61.40625 29.726562 -62.234375 26.78125 -62.234375 L 21.5625 -62.234375 L 21.5625 -42.03125 Z M 26.0625 -42.03125 "/></g></g></g><g fill="#77aca1" fill-opacity="1"><g transform="translate(80.396191, 95.70613)"><g><path d="M 26.328125 1.078125 C 18.453125 1.078125 12.832031 -0.945312 9.46875 -5 C 6.101562 -9.0625 4.421875 -15.0625 4.421875 -23 L 4.421875 -50.140625 C 4.421875 -58.078125 6.101562 -64.046875 9.46875 -68.046875 C 12.832031 -72.046875 18.453125 -74.046875 26.328125 -74.046875 C 34.265625 -74.046875 39.929688 -72.03125 43.328125 -68 C 46.734375 -63.96875 48.4375 -58.015625 48.4375 -50.140625 L 48.4375 -23 C 48.4375 -15.0625 46.734375 -9.0625 43.328125 -5 C 39.929688 -0.945312 34.265625 1.078125 26.328125 1.078125 Z M 26.328125 -10.375 C 28.617188 -10.375 30.125 -11.140625 30.84375 -12.671875 C 31.5625 -14.203125 31.921875 -16.289062 31.921875 -18.9375 L 31.921875 -54.109375 C 31.921875 -56.816406 31.5625 -58.921875 30.84375 -60.421875 C 30.125 -61.929688 28.617188 -62.6875 26.328125 -62.6875 C 24.171875 -62.6875 22.726562 -61.914062 22 -60.375 C 21.28125 -58.84375 20.921875 -56.753906 20.921875 -54.109375 L 20.921875 -18.9375 C 20.921875 -16.289062 21.25 -14.203125 21.90625 -12.671875 C 22.570312 -11.140625 24.046875 -10.375 26.328125 -10.375 Z M 26.328125 -10.375 "/></g></g></g><g fill="#77aca1" fill-opacity="1"><g transform="translate(126.567216, 95.70613)"><g><path d="M 5.40625 -73.046875 L 16.78125 -73.046875 L 31.75 -37.875 L 31.75 -73.046875 L 45.09375 -73.046875 L 45.09375 0 L 34.1875 0 L 19.203125 -37.875 L 19.203125 0 L 5.40625 0 Z M 5.40625 -73.046875 "/></g></g></g><g fill="#77aca1" fill-opacity="1"><g transform="translate(170.483769, 95.70613)"><g><path d="M 12 -61.0625 L 0.984375 -61.0625 L 0.984375 -73.046875 L 39.140625 -73.046875 L 39.140625 -61.0625 L 28.234375 -61.0625 L 28.234375 0 L 12 0 Z M 12 -61.0625 "/></g></g></g><g fill="#77aca1" fill-opacity="1"><g transform="translate(203.939537, 95.70613)"><g><path d="M 5.765625 -36.34375 L 29.125 -36.34375 L 29.125 -26.96875 L 5.765625 -26.96875 Z M 5.765625 -36.34375 "/></g></g></g><g fill="#77aca1" fill-opacity="1"><g transform="translate(232.074728, 95.70613)"><g><path d="M 5.40625 -73.046875 L 38.234375 -73.046875 L 38.234375 -62.046875 L 21.5625 -62.046875 L 21.5625 -43.921875 L 34.265625 -43.921875 L 34.265625 -32.734375 L 21.5625 -32.734375 L 21.5625 -10.90625 L 38.421875 -10.90625 L 38.421875 0 L 5.40625 0 Z M 5.40625 -73.046875 "/></g></g></g><g fill="#77aca1" fill-opacity="1"><g transform="translate(265.71085, 95.70613)"><g><path d="M 5.40625 -73.046875 L 16.78125 -73.046875 L 31.75 -37.875 L 31.75 -73.046875 L 45.09375 -73.046875 L 45.09375 0 L 34.1875 0 L 19.203125 -37.875 L 19.203125 0 L 5.40625 0 Z M 5.40625 -73.046875 "/></g></g></g><g clip-path="url(#1463fa3617)"><g fill="#77aca1" fill-opacity="1"><g transform="translate(309.627392, 95.70613)"><g><path d="M 5.40625 -73.046875 L 23.90625 -73.046875 C 30.21875 -73.046875 35.144531 -72.265625 38.6875 -70.703125 C 42.238281 -69.140625 44.75 -66.6875 46.21875 -63.34375 C 47.695312 -60.007812 48.4375 -55.550781 48.4375 -49.96875 L 48.4375 -23.453125 C 48.4375 -17.796875 47.695312 -13.285156 46.21875 -9.921875 C 44.75 -6.554688 42.253906 -4.0625 38.734375 -2.4375 C 35.210938 -0.8125 30.328125 0 24.078125 0 L 5.40625 0 Z M 24.078125 -11.1875 C 26.421875 -11.1875 28.148438 -11.53125 29.265625 -12.21875 C 30.378906 -12.90625 31.085938 -13.894531 31.390625 -15.1875 C 31.691406 -16.488281 31.84375 -18.398438 31.84375 -20.921875 L 31.84375 -52.765625 C 31.84375 -55.109375 31.675781 -56.894531 31.34375 -58.125 C 31.007812 -59.351562 30.285156 -60.269531 29.171875 -60.875 C 28.054688 -61.476562 26.328125 -61.78125 23.984375 -61.78125 L 21.5625 -61.78125 L 21.5625 -11.1875 Z M 24.078125 -11.1875 "/></g></g></g></g></g></g></g><g fill="#5f9b8e" fill-opacity="1"><g transform="translate(62.107481, 127.968528)"><g><path d="M 35.210938 -22.3125 C 33.359375 -22.3125 31.554688 -22.359375 29.796875 -22.402344 C 26.320312 -22.535156 23.324219 -22.488281 20.816406 -22.3125 C 18.308594 -22.09375 16.59375 -21.476562 15.710938 -20.421875 C 15.402344 -19.9375 15.273438 -19.496094 15.273438 -19.101562 C 15.226562 -18.660156 15.316406 -18.265625 15.449219 -17.957031 C 15.578125 -17.605469 15.710938 -17.339844 15.800781 -17.207031 C 16.019531 -16.902344 16.285156 -16.8125 16.59375 -16.902344 C 16.902344 -16.988281 17.164062 -17.164062 17.382812 -17.472656 C 17.605469 -17.78125 17.605469 -18.042969 17.472656 -18.351562 C 17.253906 -18.75 17.164062 -19.058594 17.121094 -19.277344 C 17.078125 -19.496094 17.078125 -19.628906 17.121094 -19.671875 C 17.5625 -20.113281 18.703125 -20.421875 20.597656 -20.554688 C 22.445312 -20.683594 24.46875 -20.683594 26.714844 -20.640625 C 24.207031 -13.378906 21.300781 -8.449219 18.042969 -5.855469 C 14.789062 -3.210938 11.796875 -2.421875 9.066406 -3.433594 C 6.292969 -4.445312 4.445312 -6.777344 3.519531 -10.429688 C 2.421875 -15.667969 2.992188 -21.609375 5.238281 -28.300781 C 7.4375 -34.945312 10.652344 -40.535156 14.917969 -44.980469 C 17.78125 -47.664062 20.683594 -49.378906 23.722656 -50.128906 C 26.757812 -50.878906 29.136719 -50.4375 30.894531 -48.851562 C 32.613281 -47.222656 32.964844 -44.320312 31.953125 -40.09375 C 31.863281 -39.699219 31.953125 -39.433594 32.214844 -39.300781 C 32.4375 -39.171875 32.746094 -39.171875 33.050781 -39.300781 C 33.359375 -39.433594 33.625 -39.699219 33.757812 -40.09375 C 34.902344 -44.890625 34.460938 -48.28125 32.4375 -50.171875 C 30.367188 -52.066406 27.59375 -52.683594 24.074219 -51.933594 C 20.507812 -51.183594 17.078125 -49.203125 13.777344 -46.035156 C 9.242188 -41.28125 5.808594 -35.429688 3.476562 -28.429688 C 1.144531 -21.433594 0.570312 -15.183594 1.714844 -9.636719 C 2.683594 -5.898438 4.578125 -3.34375 7.394531 -1.980469 C 10.210938 -0.617188 13.378906 -0.96875 16.855469 -2.992188 C 20.332031 -4.972656 23.546875 -9.15625 26.496094 -15.449219 C 25.878906 -12.585938 24.734375 -8.054688 23.0625 -1.804688 C 22.972656 -1.410156 23.0625 -1.144531 23.324219 -1.011719 C 23.589844 -0.878906 23.898438 -0.878906 24.207031 -1.011719 C 24.515625 -1.144531 24.734375 -1.410156 24.867188 -1.804688 C 25.21875 -3.082031 25.703125 -5.015625 26.363281 -7.527344 C 27.023438 -10.035156 27.59375 -12.5 28.167969 -15.007812 C 28.738281 -17.515625 29.046875 -19.363281 29.089844 -20.640625 C 29.136719 -20.597656 29.222656 -20.597656 29.269531 -20.597656 L 29.398438 -20.597656 C 31.117188 -20.554688 32.921875 -20.554688 34.726562 -20.554688 C 35.121094 -20.554688 35.429688 -20.683594 35.648438 -20.992188 C 35.871094 -21.300781 35.957031 -21.566406 35.914062 -21.875 C 35.871094 -22.183594 35.605469 -22.3125 35.210938 -22.3125 Z M 35.210938 -22.3125 "/></g></g></g><g fill="#5f9b8e" fill-opacity="1"><g transform="translate(101.055627, 127.968528)"><g><path d="M 15.140625 -21.742188 C 12.058594 -18.96875 9.59375 -17.648438 7.746094 -17.824219 C 6.691406 -17.957031 6.160156 -18.484375 6.160156 -19.363281 C 6.117188 -20.203125 6.292969 -21.214844 6.644531 -22.3125 L 6.734375 -22.578125 C 6.777344 -22.972656 6.734375 -23.238281 6.515625 -23.371094 C 6.292969 -23.503906 6.03125 -23.503906 5.722656 -23.414062 C 5.414062 -23.324219 5.191406 -23.105469 5.015625 -22.753906 C 4.269531 -21.390625 3.609375 -20.332031 3.082031 -19.628906 C 2.550781 -18.882812 2.15625 -18.398438 1.847656 -18.175781 C 1.539062 -17.914062 1.320312 -17.78125 1.230469 -17.78125 C 1.1875 -17.78125 1.101562 -17.78125 1.054688 -17.824219 C 0.96875 -17.824219 0.878906 -17.867188 0.835938 -17.957031 C 0.792969 -18.042969 0.75 -18.175781 0.75 -18.398438 C 0.75 -18.835938 0.878906 -19.320312 1.144531 -19.894531 C 1.363281 -20.421875 1.628906 -20.863281 1.9375 -21.214844 C 2.246094 -21.566406 2.464844 -21.652344 2.683594 -21.476562 C 2.90625 -21.257812 3.210938 -21.214844 3.519531 -21.34375 C 3.828125 -21.476562 4.09375 -21.699219 4.269531 -22.003906 C 4.402344 -22.3125 4.402344 -22.578125 4.179688 -22.84375 C 3.519531 -23.503906 2.773438 -23.589844 1.9375 -23.148438 C 1.101562 -22.710938 0.394531 -22.003906 -0.175781 -20.992188 C -0.792969 -19.980469 -1.101562 -18.925781 -1.101562 -17.867188 C -1.011719 -16.636719 -0.394531 -16.019531 0.75 -16.019531 C 1.847656 -16.019531 3.035156 -16.902344 4.3125 -18.617188 C 4.445312 -17.691406 4.796875 -17.03125 5.371094 -16.636719 C 5.941406 -16.238281 6.691406 -16.019531 7.65625 -16.019531 C 9.992188 -16.019531 12.851562 -17.5625 16.195312 -20.597656 C 16.503906 -20.90625 16.636719 -21.214844 16.59375 -21.523438 C 16.503906 -21.785156 16.328125 -21.960938 16.0625 -22.050781 C 15.757812 -22.136719 15.449219 -22.050781 15.140625 -21.742188 Z M 15.140625 -21.742188 "/></g></g></g><g fill="#5f9b8e" fill-opacity="1"><g transform="translate(116.194793, 127.968528)"><g><path d="M 4.09375 -21.652344 C 3.695312 -21.433594 3.035156 -21.300781 2.113281 -21.257812 C 2.773438 -21.652344 3.433594 -21.785156 4.09375 -21.652344 Z M 12.9375 -21.875 C 8.933594 -18.925781 5.5 -17.5625 2.640625 -17.78125 C 1.980469 -17.824219 1.539062 -17.957031 1.230469 -18.175781 C 0.925781 -18.398438 0.75 -18.617188 0.703125 -18.882812 C 0.617188 -19.101562 0.617188 -19.363281 0.660156 -19.585938 C 2.375 -19.363281 3.742188 -19.585938 4.796875 -20.203125 C 5.808594 -20.816406 6.25 -21.523438 6.117188 -22.359375 C 5.898438 -23.105469 5.28125 -23.503906 4.269531 -23.503906 C 3.257812 -23.457031 2.199219 -23.148438 1.144531 -22.488281 C 0.0429688 -21.828125 -0.660156 -20.863281 -1.054688 -19.671875 C -1.363281 -18.574219 -1.277344 -17.691406 -0.703125 -17.03125 C -0.132812 -16.371094 0.925781 -16.019531 2.464844 -16.019531 C 5.941406 -16.019531 9.683594 -17.515625 13.730469 -20.554688 C 14.082031 -20.816406 14.257812 -21.125 14.257812 -21.433594 C 14.214844 -21.742188 14.082031 -21.960938 13.863281 -22.09375 C 13.597656 -22.226562 13.292969 -22.136719 12.9375 -21.875 Z M 2.597656 -25.703125 C 2.683594 -26.144531 2.90625 -26.449219 3.210938 -26.582031 C 3.519531 -26.714844 3.785156 -26.714844 4.003906 -26.582031 C 4.226562 -26.449219 4.3125 -26.1875 4.226562 -25.789062 C 4.136719 -25.527344 4.003906 -25.304688 3.828125 -25.175781 C 3.609375 -25.042969 3.390625 -24.953125 3.210938 -24.953125 C 2.949219 -24.953125 2.773438 -25.042969 2.683594 -25.175781 C 2.550781 -25.304688 2.507812 -25.484375 2.597656 -25.703125 Z M 5.28125 -25.703125 C 5.371094 -26.144531 5.589844 -26.449219 5.898438 -26.582031 C 6.207031 -26.714844 6.46875 -26.714844 6.691406 -26.582031 C 6.910156 -26.449219 6.996094 -26.1875 6.910156 -25.789062 C 6.820312 -25.527344 6.691406 -25.304688 6.515625 -25.175781 C 6.292969 -25.042969 6.074219 -24.953125 5.898438 -24.953125 C 5.632812 -24.953125 5.457031 -25.042969 5.371094 -25.175781 C 5.238281 -25.304688 5.191406 -25.484375 5.28125 -25.703125 Z M 5.28125 -25.703125 "/></g></g></g><g fill="#5f9b8e" fill-opacity="1"><g transform="translate(129.08949, 127.968528)"><g><path d="M 12.101562 -21.828125 C 10.210938 -20.289062 8.671875 -19.234375 7.570312 -18.660156 C 6.46875 -18.089844 5.371094 -17.78125 4.355469 -17.78125 C 2.949219 -17.78125 2.113281 -18.441406 1.890625 -19.761719 C 1.671875 -21.039062 1.804688 -22.929688 2.375 -25.351562 C 2.90625 -27.769531 3.652344 -30.71875 4.578125 -34.109375 C 4.929688 -35.386719 5.28125 -36.707031 5.675781 -38.113281 C 5.808594 -38.6875 5.984375 -39.257812 6.160156 -39.832031 L 6.601562 -41.503906 C 6.691406 -41.898438 6.601562 -42.207031 6.382812 -42.339844 C 6.117188 -42.472656 5.808594 -42.472656 5.5 -42.339844 C 5.191406 -42.207031 4.972656 -41.898438 4.839844 -41.503906 L 4.355469 -39.832031 C 4.226562 -39.257812 4.050781 -38.6875 3.917969 -38.113281 C 3.566406 -36.792969 3.210938 -35.515625 2.859375 -34.328125 C 1.761719 -30.324219 0.925781 -26.933594 0.351562 -24.25 C -0.21875 -21.523438 -0.265625 -19.453125 0.21875 -18.089844 C 0.660156 -16.722656 1.890625 -16.019531 3.871094 -16.019531 C 5.324219 -16.019531 6.777344 -16.417969 8.140625 -17.164062 C 9.507812 -17.914062 11.136719 -19.058594 13.027344 -20.597656 C 13.378906 -20.90625 13.554688 -21.167969 13.511719 -21.476562 C 13.46875 -21.785156 13.292969 -21.960938 13.027344 -22.09375 C 12.761719 -22.183594 12.457031 -22.09375 12.101562 -21.828125 Z M 12.101562 -21.828125 "/></g></g></g><g fill="#5f9b8e" fill-opacity="1"><g transform="translate(141.059994, 127.968528)"><g/></g></g><g fill="#5f9b8e" fill-opacity="1"><g transform="translate(163.680725, 127.968528)"><g><path d="M 59.460938 -22.535156 C 56.6875 -22.753906 52.859375 -22.886719 47.972656 -22.972656 C 49.910156 -30.941406 51.84375 -38.246094 53.78125 -44.980469 L 55.542969 -51.40625 C 55.628906 -51.800781 55.542969 -52.066406 55.324219 -52.199219 C 55.058594 -52.328125 54.75 -52.328125 54.441406 -52.199219 C 54.132812 -52.066406 53.871094 -51.800781 53.738281 -51.40625 C 53.296875 -49.6875 52.726562 -47.664062 52.066406 -45.242188 C 50.085938 -38.332031 48.148438 -30.894531 46.210938 -22.972656 C 39.566406 -23.0625 32.523438 -23.019531 25.175781 -22.886719 C 25.21875 -23.148438 25.304688 -23.414062 25.351562 -23.632812 C 26.847656 -29.488281 28.078125 -34.550781 29.046875 -38.773438 C 29.972656 -43 30.5 -46.257812 30.632812 -48.542969 C 30.71875 -50.832031 30.191406 -51.976562 29.003906 -51.976562 C 27.859375 -51.976562 26.449219 -51.230469 24.777344 -49.734375 C 23.0625 -48.238281 21.566406 -46.609375 20.203125 -44.847656 C 18.835938 -43.085938 18 -41.679688 17.691406 -40.621094 C 17.5625 -40.09375 17.5625 -39.699219 17.78125 -39.433594 C 17.957031 -39.125 18.265625 -38.992188 18.660156 -38.992188 C 18.96875 -38.992188 19.277344 -39.125 19.496094 -39.347656 C 19.71875 -39.566406 19.804688 -39.832031 19.847656 -40.09375 C 19.847656 -40.359375 19.71875 -40.578125 19.453125 -40.710938 C 19.628906 -41.238281 20.15625 -42.164062 21.082031 -43.4375 C 22.003906 -44.714844 23.195312 -46.035156 24.644531 -47.488281 C 26.625 -49.335938 27.902344 -50.21875 28.476562 -50.171875 C 28.960938 -49.558594 28.871094 -47.53125 28.300781 -44.097656 C 27.683594 -40.621094 26.890625 -36.96875 25.964844 -33.050781 C 25 -29.136719 24.25 -26.144531 23.679688 -24.074219 C 23.546875 -23.503906 23.457031 -23.105469 23.371094 -22.84375 C 13.378906 -22.621094 5.941406 -22.136719 1.101562 -21.476562 C 0.703125 -21.390625 0.394531 -21.214844 0.265625 -20.90625 C 0.0898438 -20.597656 0.0429688 -20.289062 0.175781 -20.070312 C 0.265625 -19.804688 0.527344 -19.671875 0.925781 -19.71875 C 5.722656 -20.378906 13.027344 -20.863281 22.929688 -21.082031 C 20.949219 -13.554688 19.980469 -8.40625 19.9375 -5.722656 C 19.980469 -5.324219 20.15625 -5.148438 20.464844 -5.105469 C 20.773438 -5.0625 21.039062 -5.148438 21.34375 -5.371094 C 21.609375 -5.589844 21.742188 -5.855469 21.742188 -6.25 C 21.699219 -7.351562 22.003906 -9.242188 22.578125 -11.925781 C 23.148438 -14.566406 23.855469 -17.648438 24.734375 -21.125 C 32.128906 -21.257812 39.125 -21.300781 45.773438 -21.214844 C 45.375 -19.585938 44.980469 -17.605469 44.496094 -15.359375 C 44.011719 -13.117188 43.660156 -10.871094 43.4375 -8.671875 C 43.21875 -6.46875 43.21875 -4.621094 43.484375 -3.167969 C 43.746094 -1.671875 44.453125 -0.925781 45.550781 -0.925781 C 45.949219 -0.925781 46.210938 -1.054688 46.433594 -1.363281 C 46.652344 -1.628906 46.738281 -1.890625 46.695312 -2.199219 C 46.652344 -2.464844 46.433594 -2.640625 46.035156 -2.683594 C 45.417969 -2.816406 45.113281 -3.652344 45.15625 -5.28125 C 45.15625 -6.867188 45.332031 -8.757812 45.640625 -11.003906 C 45.949219 -13.203125 46.34375 -15.273438 46.738281 -17.207031 C 47.136719 -19.101562 47.398438 -20.464844 47.578125 -21.214844 C 52.375 -21.125 56.160156 -20.992188 58.84375 -20.773438 C 59.238281 -20.773438 59.546875 -20.90625 59.765625 -21.167969 C 59.988281 -21.433594 60.074219 -21.699219 60.03125 -22.003906 C 59.988281 -22.3125 59.8125 -22.488281 59.460938 -22.535156 Z M 59.460938 -22.535156 "/></g></g></g><g fill="#5f9b8e" fill-opacity="1"><g transform="translate(227.450063, 127.968528)"><g><path d="M 4.929688 -19.980469 C 4.488281 -20.15625 4.226562 -20.378906 4.09375 -20.683594 C 3.960938 -20.992188 3.917969 -21.257812 4.050781 -21.523438 C 4.179688 -21.828125 4.355469 -22.003906 4.578125 -22.003906 C 4.796875 -22.003906 4.929688 -21.828125 5.0625 -21.523438 C 5.148438 -21.167969 5.105469 -20.640625 4.929688 -19.980469 Z M 13.6875 -21.828125 C 11.398438 -20.246094 9.023438 -19.542969 6.601562 -19.671875 C 7.085938 -21.300781 7.085938 -22.402344 6.515625 -23.0625 C 5.941406 -23.722656 5.191406 -23.898438 4.3125 -23.679688 C 3.433594 -23.457031 2.773438 -22.796875 2.332031 -21.699219 C 2.070312 -21.039062 2.070312 -20.378906 2.289062 -19.761719 C 2.507812 -19.101562 3.082031 -18.617188 3.960938 -18.308594 C 3.566406 -17.914062 3.082031 -17.691406 2.550781 -17.691406 C 1.714844 -17.691406 1.320312 -18.089844 1.277344 -18.835938 C 1.230469 -19.585938 1.410156 -20.421875 1.804688 -21.257812 C 1.9375 -21.652344 1.9375 -21.960938 1.714844 -22.136719 C 1.496094 -22.3125 1.230469 -22.359375 0.925781 -22.3125 C 0.617188 -22.226562 0.351562 -22.003906 0.132812 -21.609375 C -0.617188 -19.804688 -0.792969 -18.398438 -0.308594 -17.382812 C 0.175781 -16.371094 0.96875 -15.886719 2.070312 -15.886719 C 3.390625 -15.886719 4.621094 -16.59375 5.722656 -17.957031 C 7.042969 -17.824219 8.496094 -17.957031 10.121094 -18.351562 C 11.707031 -18.75 13.203125 -19.496094 14.613281 -20.554688 C 14.917969 -20.863281 15.097656 -21.125 15.050781 -21.433594 C 15.007812 -21.742188 14.875 -21.917969 14.613281 -22.050781 C 14.347656 -22.183594 14.039062 -22.09375 13.6875 -21.828125 Z M 13.6875 -21.828125 "/></g></g></g><g fill="#5f9b8e" fill-opacity="1"><g transform="translate(241.136926, 127.968528)"><g><path d="M 5.675781 -30.894531 C 6.03125 -31.378906 6.425781 -31.777344 6.820312 -32.085938 C 7.21875 -32.390625 7.570312 -32.570312 7.878906 -32.570312 C 8.140625 -32.570312 8.273438 -32.347656 8.273438 -31.953125 C 8.230469 -30.765625 7.570312 -29.179688 6.335938 -27.285156 C 5.0625 -25.351562 3.566406 -23.722656 1.804688 -22.359375 C 2.949219 -26.011719 4.226562 -28.828125 5.675781 -30.894531 Z M -2.730469 0.660156 C -2.683594 -1.054688 -2.421875 -3.390625 -1.9375 -6.292969 C -1.847656 -3.609375 -2.113281 -1.277344 -2.730469 0.660156 Z M -2.949219 -13.554688 C -2.730469 -13.597656 -2.507812 -13.597656 -2.289062 -13.644531 C -2.332031 -13.421875 -2.375 -13.246094 -2.421875 -13.070312 C -2.597656 -13.203125 -2.773438 -13.378906 -2.949219 -13.554688 Z M 11.574219 -21.523438 C 10.429688 -20.246094 8.800781 -19.144531 6.691406 -18.175781 C 4.578125 -17.164062 2.332031 -16.417969 -0.0429688 -15.84375 C 0.308594 -17.296875 0.703125 -18.703125 1.101562 -20.070312 C 3.609375 -21.523438 5.722656 -23.503906 7.4375 -26.054688 C 9.15625 -28.5625 10.035156 -30.675781 10.121094 -32.390625 C 10.035156 -33.933594 9.242188 -34.59375 7.703125 -34.285156 C 6.160156 -33.976562 4.488281 -32.261719 2.683594 -29.046875 C 1.671875 -26.980469 0.792969 -24.691406 0.0429688 -22.269531 C -0.75 -19.847656 -1.410156 -17.5625 -1.890625 -15.449219 C -3.390625 -15.140625 -4.753906 -15.007812 -5.941406 -15.007812 C -6.25 -15.007812 -6.515625 -14.875 -6.734375 -14.65625 C -6.953125 -14.390625 -7.085938 -14.128906 -7.085938 -13.863281 C -7.085938 -13.554688 -6.910156 -13.378906 -6.601562 -13.292969 C -4.972656 -12.808594 -3.785156 -11.839844 -2.992188 -10.34375 C -3.476562 -7.964844 -3.828125 -5.675781 -4.09375 -3.476562 C -4.3125 -1.9375 -4.445312 -0.660156 -4.488281 0.308594 C -4.53125 1.277344 -4.53125 2.023438 -4.488281 2.597656 C -4.445312 3.167969 -4.402344 3.566406 -4.269531 3.785156 C -4.136719 4.003906 -4.003906 4.136719 -3.828125 4.179688 C -3.695312 4.226562 -3.519531 4.269531 -3.390625 4.269531 C -3.035156 4.269531 -2.730469 4.136719 -2.464844 3.871094 C -2.199219 3.609375 -1.980469 3.300781 -1.804688 2.949219 C -1.671875 2.640625 -1.539062 2.375 -1.453125 2.15625 C -0.792969 0.484375 -0.308594 -1.585938 -0.0898438 -4.09375 C 0.132812 -6.601562 -0.175781 -8.890625 -1.101562 -11.046875 C -0.878906 -12.058594 -0.660156 -13.027344 -0.441406 -14.039062 C 2.113281 -14.613281 4.621094 -15.449219 7.042969 -16.546875 C 9.460938 -17.648438 11.441406 -18.96875 12.894531 -20.597656 C 13.160156 -20.949219 13.246094 -21.257812 13.117188 -21.523438 C 12.984375 -21.742188 12.808594 -21.917969 12.5 -21.960938 C 12.191406 -22.003906 11.882812 -21.828125 11.574219 -21.523438 Z M 11.574219 -21.523438 "/></g></g></g><g fill="#5f9b8e" fill-opacity="1"><g transform="translate(252.623328, 127.968528)"><g><path d="M 25.835938 -21.652344 C 25.703125 -21.523438 25.527344 -21.433594 25.351562 -21.300781 C 24.339844 -20.507812 23.238281 -19.71875 22.003906 -18.96875 C 20.730469 -18.175781 19.628906 -17.78125 18.617188 -17.78125 C 17.957031 -17.78125 17.5625 -17.957031 17.382812 -18.351562 C 17.207031 -18.703125 17.121094 -19.320312 17.121094 -20.15625 C 17.078125 -20.640625 17.03125 -21.125 16.988281 -21.609375 C 16.902344 -22.09375 16.722656 -22.488281 16.417969 -22.84375 C 16.109375 -23.148438 15.625 -23.324219 14.964844 -23.324219 C 14.257812 -23.324219 13.597656 -23.105469 12.984375 -22.664062 C 12.324219 -22.183594 11.75 -21.652344 11.222656 -20.992188 C 10.652344 -20.332031 10.167969 -19.71875 9.683594 -19.058594 C 9.507812 -18.835938 9.332031 -18.574219 9.109375 -18.308594 C 9.15625 -18.527344 9.199219 -18.75 9.242188 -18.96875 C 9.375 -19.496094 9.507812 -20.113281 9.550781 -20.773438 C 9.59375 -21.433594 9.507812 -22.050781 9.242188 -22.578125 C 8.933594 -23.0625 8.316406 -23.324219 7.394531 -23.324219 C 6.335938 -23.324219 5.324219 -22.929688 4.402344 -22.183594 C 3.433594 -21.390625 2.464844 -20.464844 1.539062 -19.453125 L 0.925781 -18.835938 C 1.144531 -19.671875 1.363281 -20.464844 1.585938 -21.257812 C 1.714844 -21.699219 1.847656 -22.09375 1.9375 -22.445312 C 2.023438 -22.84375 1.9375 -23.105469 1.714844 -23.238281 C 1.453125 -23.371094 1.144531 -23.371094 0.835938 -23.238281 C 0.527344 -23.105469 0.308594 -22.84375 0.175781 -22.445312 C -0.0429688 -21.699219 -0.21875 -21.039062 -0.394531 -20.421875 C -0.878906 -18.792969 -1.144531 -17.5625 -1.1875 -16.8125 C -1.144531 -16.328125 -0.925781 -16.0625 -0.441406 -16.019531 C 0 -15.976562 0.441406 -16.152344 0.835938 -16.546875 C 1.144531 -16.855469 1.453125 -17.207031 1.761719 -17.515625 C 2.773438 -18.660156 3.742188 -19.628906 4.621094 -20.421875 C 5.457031 -21.167969 6.25 -21.566406 6.910156 -21.566406 C 7.394531 -21.566406 7.65625 -21.390625 7.746094 -20.992188 C 7.789062 -20.597656 7.703125 -19.894531 7.480469 -18.882812 C 7.351562 -18.441406 7.304688 -18 7.261719 -17.5625 C 7.21875 -17.121094 7.261719 -16.769531 7.394531 -16.460938 C 7.527344 -16.152344 7.878906 -16.019531 8.40625 -16.019531 C 8.890625 -16.019531 9.332031 -16.238281 9.726562 -16.636719 C 10.121094 -17.03125 10.605469 -17.605469 11.089844 -18.308594 C 11.574219 -19.011719 12.148438 -19.71875 12.808594 -20.464844 C 13.421875 -21.214844 13.996094 -21.566406 14.480469 -21.566406 C 14.789062 -21.566406 15.007812 -21.433594 15.097656 -21.167969 C 15.183594 -20.863281 15.226562 -20.378906 15.273438 -19.671875 C 15.273438 -19.144531 15.316406 -18.617188 15.449219 -18.042969 C 15.535156 -17.472656 15.800781 -17.03125 16.195312 -16.636719 C 16.59375 -16.238281 17.207031 -16.019531 18.132812 -16.019531 C 19.496094 -16.019531 20.863281 -16.460938 22.3125 -17.339844 C 23.722656 -18.175781 25.042969 -19.101562 26.273438 -20.023438 C 26.40625 -20.15625 26.539062 -20.246094 26.671875 -20.332031 C 27.023438 -20.640625 27.199219 -20.90625 27.199219 -21.214844 C 27.15625 -21.523438 27.023438 -21.699219 26.804688 -21.828125 C 26.539062 -21.960938 26.230469 -21.875 25.835938 -21.652344 Z M 25.835938 -21.652344 "/></g></g></g><g fill="#5f9b8e" fill-opacity="1"><g transform="translate(278.412723, 127.968528)"><g><path d="M 15.140625 -21.742188 C 12.058594 -18.96875 9.59375 -17.648438 7.746094 -17.824219 C 6.691406 -17.957031 6.160156 -18.484375 6.160156 -19.363281 C 6.117188 -20.203125 6.292969 -21.214844 6.644531 -22.3125 L 6.734375 -22.578125 C 6.777344 -22.972656 6.734375 -23.238281 6.515625 -23.371094 C 6.292969 -23.503906 6.03125 -23.503906 5.722656 -23.414062 C 5.414062 -23.324219 5.191406 -23.105469 5.015625 -22.753906 C 4.269531 -21.390625 3.609375 -20.332031 3.082031 -19.628906 C 2.550781 -18.882812 2.15625 -18.398438 1.847656 -18.175781 C 1.539062 -17.914062 1.320312 -17.78125 1.230469 -17.78125 C 1.1875 -17.78125 1.101562 -17.78125 1.054688 -17.824219 C 0.96875 -17.824219 0.878906 -17.867188 0.835938 -17.957031 C 0.792969 -18.042969 0.75 -18.175781 0.75 -18.398438 C 0.75 -18.835938 0.878906 -19.320312 1.144531 -19.894531 C 1.363281 -20.421875 1.628906 -20.863281 1.9375 -21.214844 C 2.246094 -21.566406 2.464844 -21.652344 2.683594 -21.476562 C 2.90625 -21.257812 3.210938 -21.214844 3.519531 -21.34375 C 3.828125 -21.476562 4.09375 -21.699219 4.269531 -22.003906 C 4.402344 -22.3125 4.402344 -22.578125 4.179688 -22.84375 C 3.519531 -23.503906 2.773438 -23.589844 1.9375 -23.148438 C 1.101562 -22.710938 0.394531 -22.003906 -0.175781 -20.992188 C -0.792969 -19.980469 -1.101562 -18.925781 -1.101562 -17.867188 C -1.011719 -16.636719 -0.394531 -16.019531 0.75 -16.019531 C 1.847656 -16.019531 3.035156 -16.902344 4.3125 -18.617188 C 4.445312 -17.691406 4.796875 -17.03125 5.371094 -16.636719 C 5.941406 -16.238281 6.691406 -16.019531 7.65625 -16.019531 C 9.992188 -16.019531 12.851562 -17.5625 16.195312 -20.597656 C 16.503906 -20.90625 16.636719 -21.214844 16.59375 -21.523438 C 16.503906 -21.785156 16.328125 -21.960938 16.0625 -22.050781 C 15.757812 -22.136719 15.449219 -22.050781 15.140625 -21.742188 Z M 15.140625 -21.742188 "/></g></g></g><g fill="#5f9b8e" fill-opacity="1"><g transform="translate(293.551889, 127.968528)"><g><path d="M 19.453125 -21.917969 C 19.144531 -21.699219 18.835938 -21.433594 18.527344 -21.214844 C 17.515625 -20.421875 16.460938 -19.671875 15.316406 -18.925781 C 14.128906 -18.175781 13.117188 -17.78125 12.191406 -17.78125 C 11.617188 -17.78125 11.265625 -17.957031 11.089844 -18.265625 C 10.871094 -18.574219 10.78125 -19.1875 10.78125 -20.023438 C 10.828125 -20.507812 10.78125 -20.992188 10.738281 -21.523438 C 10.652344 -22.003906 10.429688 -22.445312 10.121094 -22.796875 C 9.816406 -23.148438 9.242188 -23.324219 8.496094 -23.324219 C 7.394531 -23.324219 6.160156 -22.886719 4.886719 -22.003906 C 3.609375 -21.082031 2.289062 -20.023438 0.96875 -18.75 C 1.1875 -19.585938 1.410156 -20.421875 1.628906 -21.214844 C 1.761719 -21.699219 1.890625 -22.09375 1.980469 -22.445312 C 2.070312 -22.84375 1.980469 -23.105469 1.761719 -23.238281 C 1.496094 -23.371094 1.1875 -23.371094 0.878906 -23.238281 C 0.570312 -23.105469 0.351562 -22.84375 0.21875 -22.445312 C 0.0898438 -22.050781 -0.0429688 -21.609375 -0.175781 -21.125 C -0.394531 -20.332031 -0.570312 -19.542969 -0.792969 -18.75 C -1.011719 -17.957031 -1.101562 -17.339844 -1.144531 -16.855469 C -1.1875 -16.285156 -1.011719 -15.976562 -0.617188 -15.84375 C -0.265625 -15.710938 0.21875 -15.886719 0.792969 -16.417969 C 2.113281 -17.691406 3.433594 -18.882812 4.753906 -19.980469 C 6.03125 -21.039062 7.128906 -21.566406 8.011719 -21.566406 C 8.40625 -21.566406 8.671875 -21.433594 8.800781 -21.167969 C 8.933594 -20.863281 8.976562 -20.332031 8.976562 -19.542969 C 8.933594 -19.058594 8.976562 -18.527344 9.066406 -18 C 9.15625 -17.429688 9.375 -16.988281 9.769531 -16.59375 C 10.167969 -16.195312 10.78125 -16.019531 11.707031 -16.019531 C 12.9375 -16.019531 14.214844 -16.460938 15.578125 -17.296875 C 16.945312 -18.132812 18.222656 -19.011719 19.410156 -19.9375 C 19.71875 -20.15625 19.980469 -20.378906 20.289062 -20.597656 C 20.640625 -20.90625 20.816406 -21.167969 20.816406 -21.476562 C 20.773438 -21.785156 20.640625 -21.960938 20.378906 -22.09375 C 20.113281 -22.226562 19.804688 -22.136719 19.453125 -21.917969 Z M 19.453125 -21.917969 "/></g></g></g></svg>