<svg xmlns="http://www.w3.org/2000/svg" xmlns:xlink="http://www.w3.org/1999/xlink" width="250" zoomAndPan="magnify" viewBox="0 0 187.5 74.999997" height="100" preserveAspectRatio="xMidYMid meet" version="1.0"><defs><g/><clipPath id="dd1882a85d"><path d="M 55 37 L 55.601562 37 L 55.601562 38 L 55 38 Z M 55 37 " clip-rule="nonzero"/></clipPath><clipPath id="54c17c5e94"><path d="M 33 12.566406 L 35 12.566406 L 35 14 L 33 14 Z M 33 12.566406 " clip-rule="nonzero"/></clipPath><clipPath id="6d9a53c715"><path d="M 32 12.566406 L 34 12.566406 L 34 13 L 32 13 Z M 32 12.566406 " clip-rule="nonzero"/></clipPath><clipPath id="997b9c1a04"><path d="M 55 41 L 55.601562 41 L 55.601562 42 L 55 42 Z M 55 41 " clip-rule="nonzero"/></clipPath><clipPath id="12c24e0ba0"><path d="M 6.234375 12.566406 L 55.601562 12.566406 L 55.601562 62.683594 L 6.234375 62.683594 Z M 6.234375 12.566406 " clip-rule="nonzero"/></clipPath><clipPath id="e5738cbc9b"><path d="M 55 38 L 55.601562 38 L 55.601562 40 L 55 40 Z M 55 38 " clip-rule="nonzero"/></clipPath><clipPath id="9b214997ec"><path d="M 55 37 L 55.601562 37 L 55.601562 39 L 55 39 Z M 55 37 " clip-rule="nonzero"/></clipPath></defs><g clip-path="url(#dd1882a85d)"><path fill="#231f20" d="M 55.46875 37.578125 C 55.46875 37.808594 55.578125 37.726562 55.601562 37.765625 C 55.566406 37.378906 55.4375 37.59375 55.46875 37.578125 Z M 55.46875 37.578125 " fill-opacity="1" fill-rule="nonzero"/></g><path fill="#231f20" d="M 54.886719 33.820312 L 54.949219 33.878906 L 54.734375 33.347656 Z M 54.886719 33.820312 " fill-opacity="1" fill-rule="nonzero"/><path fill="#231f20" d="M 54.089844 30.371094 C 53.984375 30.75 54.484375 31.589844 54.539062 32.226562 L 54.519531 32.339844 L 54.742188 32.582031 C 54.640625 32.203125 54.519531 31.785156 54.386719 31.394531 C 54.265625 31.0625 54.164062 30.71875 54.089844 30.371094 Z M 54.089844 30.371094 " fill-opacity="1" fill-rule="nonzero"/><path fill="#231f20" d="M 53.859375 28.4375 C 53.832031 28.578125 53.644531 28.078125 54 28.863281 C 54 28.820312 54 28.808594 53.988281 28.78125 C 53.960938 28.710938 53.921875 28.609375 53.859375 28.4375 Z M 53.859375 28.4375 " fill-opacity="1" fill-rule="nonzero"/><path fill="#231f20" d="M 53.992188 28.78125 C 54.132812 29.132812 53.960938 28.527344 53.992188 28.78125 Z M 53.992188 28.78125 " fill-opacity="1" fill-rule="nonzero"/><path fill="#231f20" d="M 53.269531 27.1875 L 53.535156 27.613281 C 53.535156 27.5 53.363281 27.089844 53.460938 27.234375 C 53.21875 26.769531 53.222656 26.890625 53.269531 27.1875 Z M 53.269531 27.1875 " fill-opacity="1" fill-rule="nonzero"/><path fill="#231f20" d="M 52.941406 26.824219 C 52.988281 26.898438 53.035156 26.96875 53.078125 27.042969 C 53.078125 26.992188 53.058594 26.925781 52.941406 26.824219 Z M 52.941406 26.824219 " fill-opacity="1" fill-rule="nonzero"/><path fill="#231f20" d="M 53.359375 27.515625 L 53.078125 27.042969 C 53.078125 27.121094 53.023438 27.15625 53.203125 27.261719 C 53.128906 27.246094 53.222656 27.320312 53.359375 27.515625 Z M 53.359375 27.515625 " fill-opacity="1" fill-rule="nonzero"/><path fill="#231f20" d="M 53.457031 27.808594 C 53.535156 28.082031 53.636719 28.421875 53.382812 28 C 53.570312 28.429688 53.683594 28.605469 53.703125 28.558594 C 53.707031 28.480469 53.695312 28.402344 53.664062 28.332031 C 53.609375 28.152344 53.539062 27.976562 53.457031 27.808594 Z M 53.457031 27.808594 " fill-opacity="1" fill-rule="nonzero"/><path fill="#231f20" d="M 53.832031 30.269531 C 53.851562 30.390625 53.875 30.511719 53.886719 30.636719 L 54.035156 30.921875 C 53.988281 30.792969 53.953125 30.660156 53.933594 30.527344 C 53.898438 30.371094 53.859375 30.25 53.832031 30.269531 Z M 53.832031 30.269531 " fill-opacity="1" fill-rule="nonzero"/><path fill="#231f20" d="M 51.886719 24.40625 C 51.835938 24.40625 51.886719 24.609375 51.855469 24.667969 C 51.933594 24.761719 52.007812 24.855469 52.085938 24.957031 C 52.023438 24.773438 51.847656 24.460938 51.886719 24.40625 Z M 51.886719 24.40625 " fill-opacity="1" fill-rule="nonzero"/><path fill="#231f20" d="M 51.855469 24.667969 L 51.5 24.246094 C 51.761719 24.660156 51.832031 24.71875 51.855469 24.667969 Z M 51.855469 24.667969 " fill-opacity="1" fill-rule="nonzero"/><path fill="#231f20" d="M 52.703125 26.847656 C 52.890625 27.085938 53.046875 27.339844 53.21875 27.589844 C 53.03125 27.285156 52.84375 26.984375 52.625 26.695312 Z M 52.703125 26.847656 " fill-opacity="1" fill-rule="nonzero"/><path fill="#231f20" d="M 50.710938 22.65625 C 50.796875 22.71875 50.886719 22.789062 50.972656 22.847656 L 50.75 22.65625 L 50.519531 22.484375 Z M 50.710938 22.65625 " fill-opacity="1" fill-rule="nonzero"/><path fill="#231f20" d="M 49.828125 21.574219 C 50.042969 21.699219 49.726562 21.242188 49.925781 21.394531 C 49.695312 21.152344 49.4375 20.933594 49.160156 20.738281 C 49.425781 20.984375 49.648438 21.261719 49.828125 21.574219 Z M 49.828125 21.574219 " fill-opacity="1" fill-rule="nonzero"/><path fill="#231f20" d="M 48.75 20.449219 C 48.871094 20.546875 49.007812 20.636719 49.15625 20.738281 C 49.027344 20.632812 48.894531 20.535156 48.75 20.449219 Z M 48.75 20.449219 " fill-opacity="1" fill-rule="nonzero"/><path fill="#231f20" d="M 51.007812 23.460938 C 51 23.304688 50.953125 23.160156 50.859375 23.035156 L 50.886719 23.28125 Z M 51.007812 23.460938 " fill-opacity="1" fill-rule="nonzero"/><path fill="#231f20" d="M 50.878906 23.289062 L 50.613281 22.910156 Z M 50.878906 23.289062 " fill-opacity="1" fill-rule="nonzero"/><path fill="#231f20" d="M 51.03125 23.503906 L 51 23.457031 C 51.007812 23.480469 51.007812 23.496094 51.03125 23.503906 Z M 51.03125 23.503906 " fill-opacity="1" fill-rule="nonzero"/><path fill="#231f20" d="M 52.136719 25.535156 C 51.921875 25.289062 51.53125 24.753906 51.761719 25.363281 C 51.9375 25.519531 51.804688 25.167969 52.136719 25.535156 Z M 52.136719 25.535156 " fill-opacity="1" fill-rule="nonzero"/><path fill="#231f20" d="M 51.058594 23.808594 C 51.164062 23.972656 51.25 24.140625 51.351562 24.308594 C 51.371094 24.28125 51.351562 24.167969 51.46875 24.285156 C 51.332031 24.121094 51.199219 23.960938 51.058594 23.808594 Z M 51.058594 23.808594 " fill-opacity="1" fill-rule="nonzero"/><path fill="#231f20" d="M 50.867188 23.597656 L 51.058594 23.808594 L 50.945312 23.625 Z M 50.867188 23.597656 " fill-opacity="1" fill-rule="nonzero"/><path fill="#231f20" d="M 49.34375 21.269531 C 49.242188 21.1875 49.140625 21.097656 49.050781 21 L 48.738281 20.691406 C 48.953125 20.945312 49.167969 21.214844 49.378906 21.460938 C 49.4375 21.457031 49.582031 21.53125 49.34375 21.269531 Z M 49.34375 21.269531 " fill-opacity="1" fill-rule="nonzero"/><path fill="#231f20" d="M 50.109375 22.234375 L 50.066406 22.195312 C 50.082031 22.226562 50.097656 22.253906 50.109375 22.234375 Z M 50.109375 22.234375 " fill-opacity="1" fill-rule="nonzero"/><path fill="#231f20" d="M 46.535156 18.585938 L 46.554688 18.636719 L 46.578125 18.636719 Z M 46.535156 18.585938 " fill-opacity="1" fill-rule="nonzero"/><path fill="#231f20" d="M 49.394531 21.511719 C 49.496094 21.664062 49.621094 21.789062 49.773438 21.894531 C 49.644531 21.761719 49.507812 21.613281 49.367188 21.453125 C 49.351562 21.457031 49.339844 21.457031 49.394531 21.511719 Z M 49.394531 21.511719 " fill-opacity="1" fill-rule="nonzero"/><path fill="#231f20" d="M 48.121094 19.875 L 48.378906 20.226562 C 48.324219 20.105469 48.1875 19.882812 48.121094 19.875 Z M 48.121094 19.875 " fill-opacity="1" fill-rule="nonzero"/><path fill="#231f20" d="M 50.042969 22.109375 L 50.066406 22.136719 C 50.039062 22.054688 50.035156 22.070312 50.042969 22.109375 Z M 50.042969 22.109375 " fill-opacity="1" fill-rule="nonzero"/><path fill="#231f20" d="M 50.042969 22.109375 C 49.960938 22.03125 49.871094 21.960938 49.78125 21.894531 C 49.882812 22.007812 49.96875 22.109375 50.066406 22.195312 C 50.054688 22.167969 50.046875 22.140625 50.042969 22.109375 Z M 50.042969 22.109375 " fill-opacity="1" fill-rule="nonzero"/><path fill="#231f20" d="M 45.339844 18.628906 C 45.390625 18.59375 45.558594 18.65625 45.757812 18.785156 C 45.867188 18.855469 45.96875 18.933594 46.066406 19.019531 C 46.171875 19.113281 46.265625 19.21875 46.347656 19.332031 C 46.8125 19.625 46.792969 19.117188 46.554688 18.636719 C 46.507812 18.664062 46.488281 18.691406 45.992188 18.390625 C 46.121094 18.550781 46.859375 19.3125 46.4375 19.078125 C 46.261719 18.957031 46.101562 18.820312 45.957031 18.667969 C 45.890625 18.566406 45.820312 18.472656 45.746094 18.378906 C 45.820312 18.53125 45.605469 18.425781 45.367188 18.316406 C 45.132812 18.203125 44.871094 18.105469 44.878906 18.230469 C 45.066406 18.332031 45.253906 18.449219 45.441406 18.566406 C 45.433594 18.597656 45.21875 18.492188 45.339844 18.628906 Z M 45.339844 18.628906 " fill-opacity="1" fill-rule="nonzero"/><path fill="#231f20" d="M 47.367188 19.371094 L 47.554688 19.527344 C 47.375 19.316406 47.207031 19.09375 47.050781 18.863281 C 46.71875 18.644531 46.632812 18.625 46.585938 18.636719 C 46.871094 18.898438 47.167969 19.148438 47.445312 19.417969 Z M 47.367188 19.371094 " fill-opacity="1" fill-rule="nonzero"/><path fill="#231f20" d="M 48.304688 20.257812 C 48.097656 20.203125 47.648438 19.859375 47.804688 20.191406 C 48.296875 20.664062 48.210938 20.460938 48.535156 20.71875 C 47.75 19.933594 48.804688 20.910156 48.300781 20.269531 C 48.464844 20.414062 48.605469 20.554688 48.734375 20.6875 C 48.609375 20.53125 48.488281 20.378906 48.378906 20.226562 L 48.390625 20.253906 C 48.414062 20.296875 48.417969 20.316406 48.390625 20.269531 L 48.375 20.257812 C 48.351562 20.261719 48.328125 20.261719 48.304688 20.257812 C 48.101562 20.003906 48.292969 20.199219 48.375 20.257812 C 48.375 20.257812 48.390625 20.257812 48.398438 20.257812 C 48.128906 20 47.832031 19.765625 47.550781 19.523438 C 47.703125 19.695312 47.925781 19.890625 48.304688 20.257812 Z M 48.304688 20.257812 " fill-opacity="1" fill-rule="nonzero"/><path fill="#231f20" d="M 51.230469 24.996094 C 51.230469 24.960938 51.230469 24.957031 51.230469 24.953125 C 51.1875 24.898438 51.160156 24.882812 51.230469 24.996094 Z M 51.230469 24.996094 " fill-opacity="1" fill-rule="nonzero"/><path fill="#231f20" d="M 51.050781 24.574219 C 51.160156 24.660156 51.246094 24.765625 51.3125 24.890625 C 51.402344 25.097656 51.261719 24.917969 51.234375 24.949219 C 51.347656 25.0625 51.597656 25.367188 51.390625 24.917969 L 51.332031 24.863281 C 51.132812 24.46875 50.957031 23.902344 51.003906 23.957031 C 50.980469 24.164062 50.996094 24.371094 51.050781 24.574219 Z M 51.050781 24.574219 " fill-opacity="1" fill-rule="nonzero"/><path fill="#231f20" d="M 49.753906 22.351562 C 49.550781 22.117188 49.332031 21.902344 49.121094 21.683594 L 49.34375 22.105469 L 49.378906 22.046875 C 49.691406 22.464844 49.671875 22.332031 49.753906 22.351562 Z M 49.753906 22.351562 " fill-opacity="1" fill-rule="nonzero"/><path fill="#231f20" d="M 46.492188 18.46875 L 46.667969 18.449219 C 46.492188 18.375 46.308594 18.316406 46.132812 18.261719 Z M 46.492188 18.46875 " fill-opacity="1" fill-rule="nonzero"/><path fill="#231f20" d="M 45.53125 17.730469 L 45.632812 17.667969 C 45.535156 17.621094 45.433594 17.578125 45.335938 17.53125 Z M 45.53125 17.730469 " fill-opacity="1" fill-rule="nonzero"/><path fill="#231f20" d="M 10.519531 49.796875 L 10.675781 50.003906 C 10.628906 49.929688 10.578125 49.863281 10.519531 49.796875 Z M 10.519531 49.796875 " fill-opacity="1" fill-rule="nonzero"/><path fill="#231f20" d="M 9.636719 48.136719 L 9.570312 48.121094 C 9.632812 48.183594 9.671875 48.207031 9.636719 48.136719 Z M 9.636719 48.136719 " fill-opacity="1" fill-rule="nonzero"/><path fill="#231f20" d="M 17.632812 16.511719 C 17.242188 16.640625 16.773438 16.75 16.878906 16.828125 L 17.050781 16.863281 C 17.230469 16.722656 17.425781 16.605469 17.632812 16.511719 Z M 17.632812 16.511719 " fill-opacity="1" fill-rule="nonzero"/><path fill="#231f20" d="M 7.078125 32.992188 L 7.132812 32.890625 L 7.078125 32.609375 C 7.078125 32.726562 7.070312 32.855469 7.078125 32.992188 Z M 7.078125 32.992188 " fill-opacity="1" fill-rule="nonzero"/><path fill="#231f20" d="M 7.53125 33.359375 L 7.367188 33.839844 C 7.429688 33.683594 7.488281 33.523438 7.53125 33.359375 Z M 7.53125 33.359375 " fill-opacity="1" fill-rule="nonzero"/><path fill="#231f20" d="M 17.507812 57.128906 C 17.613281 57.15625 17.714844 57.175781 17.824219 57.195312 C 17.4375 56.933594 17.574219 57.101562 17.507812 57.128906 Z M 17.507812 57.128906 " fill-opacity="1" fill-rule="nonzero"/><g clip-path="url(#54c17c5e94)"><path fill="#231f20" d="M 34.210938 13.0625 C 33.933594 12.984375 33.652344 12.921875 33.367188 12.875 C 33.773438 13.003906 34.085938 13.152344 34.210938 13.0625 Z M 34.210938 13.0625 " fill-opacity="1" fill-rule="nonzero"/></g><path fill="#231f20" d="M 9.015625 49.785156 C 9.117188 49.921875 9.175781 49.976562 9.203125 49.953125 C 9.09375 49.8125 9.023438 49.742188 9.015625 49.785156 Z M 9.015625 49.785156 " fill-opacity="1" fill-rule="nonzero"/><g clip-path="url(#6d9a53c715)"><path fill="#231f20" d="M 32.375 12.796875 C 32.4375 12.816406 32.496094 12.828125 32.5625 12.839844 C 32.835938 12.835938 33.105469 12.847656 33.375 12.882812 C 33.046875 12.777344 32.714844 12.75 32.375 12.796875 Z M 32.375 12.796875 " fill-opacity="1" fill-rule="nonzero"/></g><path fill="#231f20" d="M 50.085938 50.957031 C 50.105469 50.9375 50.125 50.910156 50.144531 50.894531 C 50.164062 50.875 50.113281 50.90625 50.085938 50.957031 Z M 50.085938 50.957031 " fill-opacity="1" fill-rule="nonzero"/><g clip-path="url(#997b9c1a04)"><path fill="#231f20" d="M 55.097656 41.074219 C 55.097656 41.1875 55.066406 41.371094 55.046875 41.542969 C 55.078125 41.386719 55.09375 41.234375 55.097656 41.074219 Z M 55.097656 41.074219 " fill-opacity="1" fill-rule="nonzero"/></g><path fill="#231f20" d="M 41.410156 15.148438 C 41.644531 15.253906 41.453125 15.148438 41.410156 15.148438 Z M 41.410156 15.148438 " fill-opacity="1" fill-rule="nonzero"/><path fill="#231f20" d="M 42.285156 16.148438 C 42.230469 16.136719 42.1875 16.132812 42.167969 16.148438 C 42.207031 16.132812 42.246094 16.132812 42.285156 16.148438 Z M 42.285156 16.148438 " fill-opacity="1" fill-rule="nonzero"/><path fill="#231f20" d="M 29.855469 13.523438 L 29.832031 13.523438 C 29.90625 13.546875 29.894531 13.539062 29.855469 13.523438 Z M 29.855469 13.523438 " fill-opacity="1" fill-rule="nonzero"/><path fill="#231f20" d="M 41.722656 15.375 C 41.644531 15.316406 41.550781 15.253906 41.445312 15.183594 C 41.492188 15.222656 41.574219 15.28125 41.722656 15.375 Z M 41.722656 15.375 " fill-opacity="1" fill-rule="nonzero"/><path fill="#231f20" d="M 41.703125 15.300781 L 41.890625 15.414062 C 41.9375 15.410156 41.917969 15.390625 41.703125 15.300781 Z M 41.703125 15.300781 " fill-opacity="1" fill-rule="nonzero"/><path fill="#231f20" d="M 41.074219 15.011719 C 41.210938 15.070312 41.332031 15.132812 41.449219 15.199219 C 41.410156 15.171875 41.390625 15.15625 41.40625 15.160156 Z M 41.074219 15.011719 " fill-opacity="1" fill-rule="nonzero"/><path fill="#231f20" d="M 33.796875 61.472656 L 33.851562 61.472656 C 34.089844 61.390625 33.984375 61.410156 33.796875 61.472656 Z M 33.796875 61.472656 " fill-opacity="1" fill-rule="nonzero"/><path fill="#231f20" d="M 13.433594 21.648438 C 13.433594 21.648438 13.433594 21.632812 13.449219 21.625 L 13.421875 21.644531 Z M 13.433594 21.648438 " fill-opacity="1" fill-rule="nonzero"/><path fill="#231f20" d="M 12.925781 22.355469 C 13.007812 22.0625 13.175781 21.824219 13.421875 21.640625 C 13.269531 21.632812 13.113281 21.621094 12.964844 21.613281 Z M 12.925781 22.355469 " fill-opacity="1" fill-rule="nonzero"/><g clip-path="url(#12c24e0ba0)"><path fill="#231f20" d="M 13.179688 53.402344 L 12.863281 52.867188 C 13.480469 53.308594 13.777344 53.742188 13.519531 53.210938 C 13.4375 53.257812 13.296875 53.171875 13.128906 53.019531 C 12.929688 52.835938 12.746094 52.632812 12.578125 52.417969 C 12.390625 52.1875 12.203125 51.957031 12.046875 51.796875 C 11.890625 51.632812 11.757812 51.527344 11.667969 51.566406 L 11.5 51.1875 C 11.566406 51.285156 11.59375 51.285156 11.65625 51.375 C 11.355469 50.636719 11.09375 51.054688 10.589844 50.167969 C 10.429688 49.847656 10.363281 49.597656 10.519531 49.789062 L 10.046875 49.152344 C 9.941406 48.945312 10.027344 48.960938 10.132812 49.164062 C 9.929688 48.820312 9.757812 48.460938 9.554688 48.109375 L 9.570312 48.109375 C 9.394531 47.921875 9.230469 47.71875 9.082031 47.507812 C 9.003906 47.203125 9.179688 47.632812 9.191406 47.539062 C 9.074219 47.351562 8.949219 47.160156 8.835938 46.972656 C 8.835938 46.824219 8.902344 46.871094 8.996094 47.007812 C 9.117188 47.1875 9.222656 47.378906 9.304688 47.578125 C 9.359375 47.328125 9.304688 47.105469 9.140625 46.910156 C 8.914062 46.5625 8.769531 46.183594 8.703125 45.773438 C 8.789062 45.960938 8.894531 46.152344 8.972656 46.34375 C 8.988281 46.105469 8.960938 45.871094 8.890625 45.644531 C 8.808594 45.351562 8.746094 45.054688 8.699219 44.753906 C 8.683594 44.925781 8.828125 46.199219 8.511719 45.550781 C 8.457031 45.265625 8.355469 44.992188 8.207031 44.742188 C 8.335938 44.699219 8.207031 44.339844 8.066406 43.886719 L 8.253906 43.871094 C 8.195312 43.722656 8.121094 43.585938 8.03125 43.457031 C 7.960938 43.371094 7.894531 43.28125 7.84375 43.183594 C 7.730469 42.617188 7.84375 42.476562 7.933594 42.320312 C 7.804688 41.417969 7.824219 42.988281 7.601562 41.925781 C 7.585938 41.734375 7.5625 41.558594 7.535156 41.390625 C 7.503906 41.21875 7.488281 41.054688 7.453125 40.882812 C 7.390625 40.546875 7.289062 40.191406 7.207031 39.738281 C 7.230469 39.195312 7.324219 39.824219 7.363281 39.625 L 7.175781 39.160156 C 7.175781 39.046875 7.214844 39.078125 7.242188 39.097656 C 7.164062 38.699219 7.050781 39.074219 6.988281 38.441406 C 6.890625 38.355469 6.941406 38.027344 7.019531 37.625 C 7.125 37.203125 7.144531 36.78125 7.082031 36.351562 C 7.148438 36.164062 7.1875 36.449219 7.257812 36.398438 C 7.226562 35.859375 7.214844 35.628906 7.199219 35.417969 C 7.183594 35.210938 7.171875 35.027344 7.128906 34.574219 C 7.195312 34.328125 7.265625 34.085938 7.351562 33.84375 C 7.121094 34.367188 7.085938 33.65625 7.070312 33 C 6.96875 33.1875 6.878906 33.34375 6.835938 33.449219 C 6.863281 33.113281 6.886719 32.773438 6.9375 32.4375 C 6.996094 32.324219 7.035156 32.4375 7.070312 32.613281 C 7.070312 32.542969 7.070312 32.476562 7.070312 32.425781 C 7.214844 32.085938 7.273438 32.296875 7.316406 32.566406 L 7.128906 32.894531 C 7.191406 33.164062 7.269531 33.410156 7.382812 33.378906 C 7.371094 33.269531 7.371094 33.160156 7.382812 33.050781 C 7.402344 33.117188 7.421875 33.164062 7.445312 33.136719 C 7.464844 33.113281 7.445312 32.996094 7.445312 32.832031 L 7.691406 32.65625 L 7.625 32.585938 L 7.828125 31.96875 C 7.894531 31.765625 7.984375 31.566406 8.058594 31.363281 C 8.070312 31.128906 8.078125 30.898438 8.085938 30.664062 C 8.09375 30.429688 8.121094 30.1875 8.148438 29.929688 C 8.164062 29.800781 8.179688 29.667969 8.199219 29.53125 C 8.222656 29.394531 8.253906 29.253906 8.289062 29.105469 C 8.363281 28.777344 8.457031 28.453125 8.574219 28.136719 C 8.558594 28.535156 8.761719 28.304688 8.914062 28.394531 C 8.746094 28.539062 8.667969 28.816406 8.582031 29.136719 L 8.449219 29.644531 C 8.40625 29.828125 8.351562 30.007812 8.285156 30.179688 C 8.429688 29.8125 8.472656 29.921875 8.472656 30.027344 C 8.554688 29.582031 8.679688 29.144531 8.789062 28.699219 C 8.910156 28.785156 8.992188 28.472656 9.195312 28.179688 C 9.003906 28.242188 9.070312 27.988281 9.195312 27.660156 C 9.226562 27.574219 9.261719 27.488281 9.296875 27.394531 L 9.421875 27.128906 C 9.496094 26.972656 9.5625 26.8125 9.621094 26.652344 C 9.722656 26.664062 9.746094 26.828125 9.421875 27.410156 C 9.949219 26.851562 9.546875 26.394531 10.078125 25.84375 C 10 25.988281 9.941406 26.058594 9.953125 26.136719 C 10.046875 25.894531 10.164062 25.664062 10.3125 25.445312 C 10.453125 25.234375 10.589844 25.105469 10.5625 25.222656 L 10.476562 25.359375 C 10.628906 25.132812 10.816406 24.847656 11.011719 24.539062 C 11.203125 24.230469 11.433594 23.917969 11.621094 23.613281 C 11.8125 23.3125 12 23.046875 12.128906 22.824219 C 12.230469 22.691406 12.289062 22.539062 12.308594 22.371094 C 12.375 22.492188 12.417969 22.617188 12.433594 22.75 C 12.640625 22.085938 12.863281 21.402344 13.136719 20.738281 C 13.167969 21.007812 13.972656 20.875 13.4375 21.609375 C 13.554688 21.515625 13.664062 21.414062 13.769531 21.304688 C 13.898438 21.179688 14.035156 21.007812 14.207031 20.796875 C 14.058594 20.898438 13.679688 20.894531 13.839844 20.710938 C 14.484375 20.414062 14.253906 20.46875 14.988281 20.0625 C 14.757812 20.203125 14.765625 19.769531 15.09375 19.492188 C 15.074219 19.574219 15.328125 19.714844 15.234375 19.839844 L 15.523438 19.375 C 15.621094 19.222656 15.730469 19.078125 15.832031 18.925781 C 15.664062 19.132812 15.964844 19.164062 16.207031 19.09375 C 16.148438 19.09375 16.324219 18.964844 16.539062 18.796875 C 16.757812 18.632812 17.027344 18.464844 17.132812 18.371094 L 16.730469 18.558594 C 17.070312 18.339844 17.351562 18.0625 17.570312 17.71875 C 17.664062 17.585938 17.769531 17.460938 17.882812 17.34375 C 18.046875 17.167969 18.238281 17.023438 18.449219 16.90625 C 18.355469 17.035156 18.355469 17.429688 18.886719 17.167969 C 19.03125 16.886719 19.199219 16.613281 19.390625 16.355469 C 19.6875 15.9375 20.050781 15.59375 20.484375 15.320312 L 20.707031 15.320312 C 20.941406 15.175781 21.171875 15.027344 21.414062 14.898438 C 21.226562 15.097656 20.851562 15.480469 20.472656 15.859375 C 20.285156 16.046875 20.097656 16.253906 19.910156 16.425781 C 19.722656 16.601562 19.558594 16.777344 19.414062 16.910156 C 19.835938 16.769531 19.574219 16.949219 20.152344 16.640625 C 20.394531 16.617188 19.894531 16.921875 19.730469 17.019531 C 20.1875 16.808594 20.640625 16.585938 21.109375 16.40625 C 21.039062 16.332031 21.28125 16.167969 21.53125 16.007812 C 21.777344 15.84375 22.042969 15.710938 21.984375 15.648438 C 21.488281 15.902344 21.019531 16.21875 20.550781 16.488281 C 20.476562 16.417969 20.636719 16.195312 20.945312 15.9375 C 21.121094 15.789062 21.308594 15.65625 21.507812 15.542969 C 21.742188 15.414062 21.984375 15.304688 22.234375 15.214844 C 22.519531 15.183594 22.160156 15.609375 22.207031 15.660156 C 22.363281 15.546875 22.535156 15.457031 22.71875 15.390625 C 22.882812 15.3125 23.054688 15.253906 23.238281 15.214844 L 22.835938 15.460938 C 23.101562 15.390625 23.347656 15.277344 23.574219 15.125 C 23.839844 14.972656 24.128906 14.890625 24.4375 14.878906 C 24.679688 14.816406 25.214844 14.929688 25.230469 14.8125 C 24.789062 14.691406 24.535156 14.054688 24.769531 13.835938 L 25.523438 13.785156 C 25.703125 13.777344 25.882812 13.777344 26.0625 13.785156 C 26.191406 13.789062 26.316406 13.796875 26.441406 13.8125 C 26.878906 13.90625 25.894531 14.324219 26.273438 14.40625 C 26.273438 14.351562 26.492188 14.25 26.582031 14.214844 C 26.847656 14.214844 26.503906 14.394531 27.058594 14.273438 C 27.125 14.066406 28.214844 14.140625 27.304688 14.082031 C 27.496094 14.035156 27.691406 14.007812 27.890625 14.003906 C 28.054688 14.003906 28.226562 13.992188 28.554688 13.96875 C 28.445312 13.914062 28.582031 13.796875 28.820312 13.679688 C 29.09375 13.542969 29.382812 13.453125 29.6875 13.410156 C 29.65625 13.460938 29.785156 13.523438 29.847656 13.550781 C 30.140625 13.550781 30.398438 13.550781 30.636719 13.550781 C 30.875 13.550781 31.097656 13.582031 31.316406 13.601562 L 31.980469 13.652344 C 32.207031 13.679688 32.449219 13.703125 32.71875 13.726562 C 32.8125 13.777344 33.324219 13.878906 33.09375 13.941406 C 33.304688 13.902344 33.515625 13.894531 33.730469 13.917969 C 34.34375 14.164062 32.992188 13.847656 33.453125 14.105469 C 33.507812 14.003906 34.324219 14.046875 34.800781 14.078125 C 34.742188 13.980469 34.476562 13.910156 34.160156 13.886719 C 33.84375 13.863281 33.480469 13.875 33.242188 13.886719 C 33.253906 13.765625 33.472656 13.671875 33.835938 13.609375 C 34.046875 13.574219 34.261719 13.554688 34.480469 13.550781 C 34.722656 13.550781 34.992188 13.5625 35.28125 13.585938 C 35.742188 13.632812 35.824219 13.710938 35.824219 13.75 C 35.820312 13.785156 35.722656 13.816406 35.800781 13.816406 C 36.117188 13.898438 36.4375 13.960938 36.761719 13.992188 C 36.957031 14.015625 37.15625 14.027344 37.351562 14.027344 C 37.53125 14.027344 37.710938 14.042969 37.890625 14.074219 C 38.15625 14.136719 38.414062 14.234375 38.65625 14.359375 C 39.144531 14.6875 38.582031 14.65625 38.65625 14.800781 C 38.363281 14.722656 38.078125 14.617188 37.804688 14.484375 C 37.582031 14.382812 37.355469 14.292969 37.121094 14.222656 L 37.710938 14.441406 C 37.378906 14.414062 37.054688 14.335938 36.742188 14.210938 C 36.941406 14.3125 37.148438 14.394531 37.367188 14.457031 L 37.859375 14.609375 L 38.421875 14.796875 C 38.613281 14.867188 38.820312 14.933594 39.015625 15.007812 L 39.601562 15.25 C 39.953125 15.398438 40.292969 15.574219 40.617188 15.769531 C 40.847656 15.820312 41.238281 15.9375 41.09375 15.804688 L 40.703125 15.648438 C 40.40625 15.378906 41.492188 15.820312 41.035156 15.550781 C 41.328125 15.628906 41.621094 15.726562 41.90625 15.835938 C 42.0625 15.894531 42.222656 15.964844 42.382812 16.042969 C 42.550781 16.132812 42.710938 16.230469 42.867188 16.339844 L 42.917969 16.566406 C 42.925781 16.515625 42.519531 16.214844 42.296875 16.152344 C 42.535156 16.269531 42.746094 16.414062 42.941406 16.59375 C 43.0625 16.683594 43.1875 16.769531 43.320312 16.84375 C 43.421875 16.914062 43.535156 16.953125 43.660156 16.964844 C 43.523438 16.832031 43.390625 16.691406 43.25 16.566406 C 43.519531 16.667969 43.8125 16.792969 44.128906 16.933594 C 44.289062 17 44.445312 17.082031 44.59375 17.167969 C 44.738281 17.261719 44.878906 17.363281 45.011719 17.476562 C 44.84375 17.144531 44.867188 17.394531 44.566406 16.9375 C 44.796875 17.382812 43.027344 15.9375 43.488281 16.542969 C 43.335938 16.335938 43.152344 16.167969 42.9375 16.035156 C 42.699219 15.875 42.46875 15.695312 42.253906 15.503906 C 42.253906 15.5625 42.417969 15.710938 41.898438 15.410156 C 41.851562 15.410156 41.804688 15.402344 41.757812 15.394531 L 41.726562 15.371094 L 41.75 15.390625 C 41.726562 15.390625 41.722656 15.390625 41.761719 15.390625 C 41.847656 15.453125 41.925781 15.523438 41.992188 15.609375 C 41.730469 15.558594 41.480469 15.480469 41.238281 15.371094 C 40.945312 15.261719 40.648438 15.144531 40.484375 15.109375 C 40.175781 14.9375 40.644531 15.109375 40.496094 14.976562 C 40.335938 14.9375 40.175781 14.90625 40.015625 14.878906 C 40.015625 14.746094 39.21875 14.335938 40.015625 14.574219 L 39.339844 14.304688 C 38.917969 14.066406 38.46875 13.898438 37.996094 13.796875 C 37.660156 13.671875 37.089844 13.683594 37.417969 13.671875 C 37.226562 13.632812 37.03125 13.585938 36.835938 13.550781 L 36.25 13.457031 L 36.25 13.421875 C 35.664062 13.292969 35.070312 13.199219 34.46875 13.144531 C 33.828125 13.089844 33.191406 12.988281 32.5625 12.839844 C 32.375 12.839844 32.167969 12.839844 31.9375 12.839844 C 31.703125 12.839844 31.4375 12.839844 31.109375 12.8125 L 30.984375 12.699219 C 30.730469 12.699219 30.351562 12.699219 30.007812 12.679688 C 29.664062 12.664062 29.351562 12.667969 29.253906 12.738281 C 29.046875 12.667969 28.832031 12.640625 28.617188 12.652344 C 28.480469 12.652344 28.332031 12.652344 28.175781 12.667969 C 28.023438 12.6875 27.859375 12.707031 27.699219 12.730469 C 27.375 12.785156 27.035156 12.832031 26.726562 12.898438 C 26.417969 12.964844 26.136719 13.019531 25.914062 13.042969 L 25.914062 13.191406 C 25.609375 13.246094 25.308594 13.320312 25.015625 13.410156 L 24.539062 13.554688 C 24.378906 13.609375 24.210938 13.671875 24.03125 13.742188 L 24.113281 13.851562 C 23.734375 13.996094 23.351562 14.113281 22.957031 14.203125 L 22.25 14.390625 C 22.011719 14.464844 21.769531 14.554688 21.53125 14.652344 C 21.675781 14.550781 21.832031 14.484375 22.007812 14.460938 C 21.691406 14.503906 21.382812 14.585938 21.082031 14.703125 C 20.792969 14.839844 20.507812 14.988281 20.234375 15.15625 C 19.953125 15.308594 19.691406 15.492188 19.425781 15.640625 C 19.171875 15.789062 18.90625 15.914062 18.632812 16.019531 C 18.457031 16.167969 18.261719 16.28125 18.046875 16.359375 C 18.066406 16.347656 18.085938 16.332031 18.101562 16.316406 L 18.003906 16.375 C 17.878906 16.417969 17.757812 16.464844 17.636719 16.519531 C 17.753906 16.484375 17.859375 16.441406 17.949219 16.40625 C 17.707031 16.558594 17.46875 16.726562 17.242188 16.90625 L 17.054688 16.867188 L 16.996094 16.910156 C 16.703125 17.039062 16.820312 17.101562 17.015625 17.101562 C 16.90625 17.195312 16.808594 17.296875 16.71875 17.40625 C 16.550781 17.390625 16.390625 17.527344 16.222656 17.667969 C 16.136719 17.738281 16.050781 17.804688 15.957031 17.859375 C 15.871094 17.921875 15.773438 17.957031 15.667969 17.96875 C 15.476562 18.203125 15.265625 18.417969 15.03125 18.613281 C 14.757812 18.902344 14.5 19.199219 14.515625 19.34375 C 14.488281 19.328125 14.40625 19.378906 14.535156 19.265625 C 14.246094 19.457031 14 19.691406 13.792969 19.96875 L 13.566406 19.945312 L 13.378906 20.296875 L 13.191406 20.660156 C 12.792969 20.925781 12.613281 21.027344 12.835938 20.59375 C 12.679688 20.835938 12.566406 21 12.476562 21.125 C 12.386719 21.253906 12.328125 21.347656 12.265625 21.429688 C 12.09375 21.671875 11.9375 21.921875 11.804688 22.1875 L 11.746094 22.082031 C 11.539062 22.355469 11.324219 22.878906 11.125 22.980469 C 10.890625 23.195312 10.679688 23.433594 10.496094 23.695312 C 10.363281 23.859375 10.234375 24.054688 10.097656 24.261719 L 9.671875 24.925781 C 9.105469 25.875 8.523438 26.980469 8.050781 27.855469 C 8.28125 27.746094 8.148438 27.9375 7.996094 28.1875 C 7.84375 28.433594 7.667969 28.738281 7.773438 28.820312 C 7.660156 28.898438 7.519531 29.140625 7.570312 28.820312 C 7.496094 29.066406 7.417969 29.273438 7.351562 29.464844 C 7.289062 29.652344 7.214844 29.820312 7.164062 29.980469 C 7.03125 30.292969 6.96875 30.621094 6.976562 30.960938 C 6.871094 31.050781 6.925781 30.71875 6.855469 30.808594 C 6.855469 30.953125 6.820312 31.09375 6.757812 31.226562 C 6.683594 31.3125 6.734375 31.066406 6.746094 30.898438 C 6.691406 31.101562 6.648438 31.304688 6.625 31.511719 C 6.617188 31.640625 6.625 31.765625 6.65625 31.890625 C 6.691406 32.035156 6.777344 32.140625 6.910156 32.203125 C 6.8125 32.394531 6.746094 32.597656 6.703125 32.804688 C 6.679688 32.988281 6.691406 33.167969 6.730469 33.34375 C 6.628906 33.507812 6.5 33.792969 6.585938 33.15625 L 6.480469 33.640625 L 6.40625 33.992188 L 6.351562 34.371094 C 6.285156 34.878906 6.246094 35.34375 6.339844 35.375 C 6.292969 35.570312 6.28125 35.769531 6.304688 35.96875 L 6.257812 36.457031 C 6.246094 36.585938 6.246094 36.699219 6.238281 36.804688 C 6.238281 37.023438 6.226562 37.238281 6.222656 37.632812 L 6.257812 37.414062 C 6.464844 37.726562 6.308594 38.070312 6.347656 38.703125 L 6.324219 38.6875 C 6.300781 38.933594 6.292969 39.179688 6.308594 39.425781 C 6.3125 39.527344 6.324219 39.628906 6.34375 39.726562 C 6.363281 39.828125 6.371094 39.925781 6.375 40.027344 L 6.375 40.757812 L 6.5 40.664062 C 6.652344 40.714844 6.648438 41.03125 6.632812 41.441406 C 6.613281 41.886719 6.65625 42.324219 6.765625 42.753906 L 6.789062 42.441406 C 6.859375 42.734375 6.867188 43.03125 6.808594 43.324219 C 6.746094 43.628906 6.730469 43.933594 6.753906 44.238281 C 6.753906 44.34375 6.671875 44.097656 6.621094 43.960938 C 6.777344 45.183594 6.832031 44.070312 7.113281 44.925781 C 7.070312 45.113281 6.816406 44.789062 6.980469 45.378906 C 6.992188 45.535156 7.203125 45.9375 7.429688 46.394531 C 7.554688 46.617188 7.679688 46.859375 7.78125 47.097656 C 7.832031 47.214844 7.878906 47.332031 7.914062 47.449219 C 7.953125 47.554688 7.984375 47.664062 8.011719 47.773438 C 8.011719 47.585938 7.996094 47.382812 8.21875 47.742188 C 8.488281 48.308594 8.707031 49.433594 9.199219 49.828125 C 9.21875 49.90625 9.21875 49.945312 9.199219 49.957031 C 9.347656 50.144531 9.554688 50.492188 9.785156 50.785156 C 9.949219 51.027344 10.140625 51.242188 10.355469 51.4375 C 10.3125 51.601562 10.425781 51.816406 10.59375 52.078125 C 10.785156 52.359375 11.003906 52.625 11.238281 52.871094 C 11.480469 53.125 11.703125 53.375 11.863281 53.5625 C 12.023438 53.75 12.097656 53.894531 12.015625 53.964844 C 12.183594 54.152344 12.34375 54.34375 12.519531 54.523438 L 13.042969 55.058594 L 12.992188 55.058594 C 13.21875 55.328125 13.476562 55.566406 13.765625 55.773438 C 13.925781 55.890625 14.097656 55.988281 14.28125 56.070312 C 14.429688 56.238281 14.28125 56.160156 14.25 56.167969 C 14.578125 56.519531 14.9375 56.84375 15.320312 57.132812 C 15.675781 57.375 16.050781 57.582031 16.441406 57.753906 L 16.460938 57.941406 C 16.59375 58.019531 16.71875 58.109375 16.835938 58.214844 C 17.011719 58.359375 17.242188 58.527344 17.496094 58.722656 C 17.625 58.820312 17.757812 58.914062 17.902344 59.019531 C 18.042969 59.125 18.195312 59.207031 18.351562 59.300781 C 18.652344 59.488281 18.972656 59.648438 19.308594 59.773438 C 19.289062 59.773438 19.25 59.792969 19.144531 59.761719 C 19.863281 60.050781 20.648438 60.535156 21.382812 60.886719 C 22.121094 61.238281 22.761719 61.46875 23.105469 61.316406 C 23.4375 61.390625 23.777344 61.429688 24.113281 61.484375 C 22.871094 61.085938 24.359375 61.324219 23.867188 61.09375 C 24.121094 61.15625 24.363281 61.25 24.589844 61.375 C 24.761719 61.460938 24.792969 61.53125 24.484375 61.460938 L 24.398438 61.410156 C 24.101562 61.625 25.949219 61.882812 25.882812 62.039062 C 27.136719 62.285156 28.398438 62.457031 29.671875 62.550781 L 30.613281 62.601562 C 30.925781 62.601562 31.238281 62.601562 31.554688 62.601562 C 31.710938 62.601562 31.867188 62.601562 32.019531 62.601562 L 32.480469 62.578125 C 32.785156 62.554688 33.09375 62.546875 33.394531 62.507812 C 33.292969 62.449219 33.195312 62.394531 33.09375 62.328125 C 33.375 62.308594 33.660156 62.269531 33.933594 62.238281 C 34.160156 62.257812 34.25 62.363281 33.648438 62.429688 C 33.863281 62.449219 34.070312 62.421875 34.273438 62.335938 C 34.410156 62.300781 34.535156 62.238281 34.648438 62.148438 C 35.824219 62.023438 34.230469 62.46875 34.589844 62.410156 L 35.074219 62.308594 L 34.960938 62.308594 C 35.148438 62.230469 35.25 62.167969 35.390625 62.117188 C 35.476562 62.082031 35.5625 62.054688 35.652344 62.03125 C 35.757812 61.996094 35.890625 61.964844 36.070312 61.925781 C 36.523438 61.863281 36.328125 61.996094 36.503906 61.964844 C 36.503906 61.980469 36.570312 61.964844 36.777344 61.90625 C 37.125 61.820312 37.46875 61.71875 37.8125 61.632812 L 37.359375 61.59375 C 37.792969 61.390625 38.320312 61.320312 37.796875 61.28125 C 38.171875 61.3125 39.136719 61.03125 40.019531 60.664062 C 40.464844 60.488281 40.882812 60.269531 41.230469 60.117188 C 41.457031 59.996094 41.691406 59.890625 41.933594 59.792969 C 42.066406 59.691406 42.203125 59.601562 42.34375 59.503906 C 42.484375 59.40625 42.621094 59.316406 42.765625 59.222656 C 43.058594 59.03125 43.382812 58.867188 43.71875 58.652344 C 43.53125 58.734375 43.34375 58.640625 43.929688 58.285156 C 43.929688 58.507812 44.21875 58.382812 44.578125 58.160156 C 44.917969 57.921875 45.285156 57.726562 45.675781 57.578125 C 45.421875 57.664062 45.808594 57.347656 46.15625 57.042969 C 46.503906 56.742188 46.796875 56.429688 46.417969 56.59375 C 46.875 56.234375 46.535156 56.679688 46.925781 56.457031 C 47.167969 56.203125 47.425781 55.941406 47.695312 55.675781 L 48.121094 55.28125 L 48.546875 54.867188 C 48.691406 54.722656 48.84375 54.585938 48.984375 54.4375 L 49.414062 53.976562 C 49.703125 53.664062 49.976562 53.335938 50.222656 52.988281 C 50.203125 52.933594 49.964844 53.117188 50.132812 52.78125 C 50.386719 52.589844 50.621094 52.402344 50.867188 52.195312 C 50.925781 52.074219 50.960938 51.949219 50.96875 51.816406 C 51.027344 51.621094 51.136719 51.464844 51.296875 51.347656 C 51.214844 51.398438 51.09375 51.472656 51.203125 51.273438 C 52.21875 49.929688 52.96875 48.355469 53.570312 46.734375 C 54.167969 45.113281 54.621094 43.445312 55.121094 41.78125 C 54.941406 42.222656 54.988281 41.917969 55.046875 41.566406 C 54.984375 41.789062 54.925781 41.539062 54.859375 41.578125 C 54.980469 41.113281 55.109375 40.648438 55.21875 40.175781 C 55.136719 40.035156 55.160156 39.652344 55.1875 39.285156 C 55.210938 38.914062 55.207031 38.558594 55.125 38.480469 L 55.148438 38.90625 C 55.050781 38.597656 54.933594 38.804688 54.796875 39.070312 C 54.660156 39.332031 54.496094 39.652344 54.363281 39.601562 C 54.40625 39.789062 54.40625 39.980469 54.363281 40.167969 C 54.324219 40.375 54.253906 40.597656 54.183594 40.832031 C 54.117188 41.070312 54.058594 41.316406 53.996094 41.570312 C 53.941406 41.835938 53.929688 42.105469 53.964844 42.371094 C 53.867188 42.59375 53.914062 42.160156 53.832031 42.269531 C 53.902344 42.5625 53.84375 42.886719 53.660156 43.464844 L 53.648438 43.390625 C 53.570312 43.757812 53.472656 44.121094 53.355469 44.480469 C 53.261719 44.789062 53.15625 45.089844 53.03125 45.386719 C 52.914062 45.683594 52.796875 45.984375 52.636719 46.308594 C 52.480469 46.636719 52.328125 47.007812 52.105469 47.429688 L 52.292969 47.355469 C 52.191406 47.566406 52.070312 47.761719 51.929688 47.945312 C 51.921875 48.460938 52.410156 46.898438 52.441406 47.375 C 52.277344 47.546875 52.144531 47.738281 52.046875 47.953125 C 51.90625 48.222656 51.734375 48.535156 51.578125 48.847656 C 51.429688 49.136719 51.265625 49.417969 51.082031 49.683594 C 50.921875 49.917969 50.78125 50.082031 50.664062 50.117188 C 50.324219 50.644531 50.894531 50.042969 50.554688 50.574219 L 50.394531 50.667969 L 50.394531 50.859375 C 50.308594 50.992188 50.199219 51.109375 50.070312 51.203125 C 49.980469 51.269531 49.910156 51.289062 49.882812 51.273438 C 49.957031 51.167969 50.023438 51.058594 50.085938 50.941406 C 49.867188 51.179688 49.671875 51.441406 49.507812 51.722656 C 49.386719 51.925781 49.25 52.117188 49.097656 52.300781 C 49.234375 52.152344 49.371094 52.007812 49.503906 51.855469 C 49.257812 52.207031 48.992188 52.570312 48.703125 52.929688 C 48.410156 53.285156 48.101562 53.648438 47.773438 53.980469 L 47.292969 54.5 L 46.804688 54.988281 C 46.496094 55.320312 46.171875 55.617188 45.886719 55.933594 L 46.023438 55.902344 C 45.914062 56.015625 45.820312 56.113281 45.734375 56.195312 C 45.648438 56.277344 45.566406 56.335938 45.5 56.386719 C 45.359375 56.496094 45.25 56.574219 45.140625 56.640625 L 44.75 56.898438 C 44.589844 57.003906 44.386719 57.144531 44.113281 57.359375 L 44.144531 57.316406 C 43.90625 57.574219 43.636719 57.789062 43.335938 57.964844 C 43.589844 57.710938 42.707031 58.199219 43.046875 57.882812 C 42.503906 58.292969 42.355469 58.390625 42.285156 58.480469 C 42.15625 58.664062 42.007812 58.824219 41.839844 58.96875 L 41.605469 58.96875 C 41.488281 59.082031 41.429688 59.15625 41.324219 59.238281 C 41.152344 59.375 40.960938 59.492188 40.761719 59.585938 C 41.246094 59.265625 40.289062 59.621094 40.820312 59.25 C 40.511719 59.332031 40.210938 59.445312 39.921875 59.585938 C 39.664062 59.703125 39.449219 59.808594 39.25 59.914062 C 38.859375 60.125 38.539062 60.261719 38.171875 60.210938 C 37.902344 60.457031 38.210938 60.398438 38.546875 60.289062 C 38.882812 60.179688 39.242188 60.023438 39.078125 60.125 C 39.242188 60.109375 39.132812 60.214844 38.925781 60.335938 C 38.6875 60.464844 38.4375 60.566406 38.179688 60.640625 C 37.933594 60.699219 37.6875 60.714844 37.4375 60.679688 C 37.261719 60.675781 37.085938 60.679688 36.914062 60.699219 C 36.808594 60.710938 36.703125 60.730469 36.582031 60.753906 C 36.464844 60.777344 36.332031 60.796875 36.191406 60.832031 C 36.304688 60.808594 36.304688 60.785156 36.417969 60.757812 C 36.199219 60.785156 35.988281 60.835938 35.78125 60.914062 C 35.671875 60.949219 35.5625 60.984375 35.445312 61.011719 C 35.320312 61.03125 35.195312 61.039062 35.066406 61.035156 C 34.804688 61.261719 34.382812 61.148438 34.332031 61.386719 L 35.382812 61.144531 C 35.089844 61.226562 34.816406 61.359375 34.480469 61.476562 C 34.078125 61.609375 33.667969 61.671875 33.246094 61.667969 C 33.429688 61.574219 33.617188 61.503906 33.8125 61.453125 C 33.511719 61.421875 33.246094 61.578125 32.945312 61.53125 C 32.976562 61.421875 33.300781 61.371094 33.699219 61.3125 C 33.886719 61.285156 34.105469 61.257812 34.308594 61.21875 C 34.496094 61.179688 34.675781 61.121094 34.851562 61.042969 C 34.621094 61.058594 34.398438 61.101562 34.175781 61.175781 C 33.957031 61.226562 33.808594 61.25 33.957031 61.109375 C 33.746094 61.296875 33.457031 61.320312 33.132812 61.34375 C 32.761719 61.328125 32.402344 61.378906 32.050781 61.496094 L 32.097656 61.359375 C 31.898438 61.421875 31.695312 61.457031 31.488281 61.464844 L 31.894531 61.277344 C 31.265625 61.4375 30.671875 61.1875 30.066406 61.238281 C 30.699219 61.253906 30.773438 61.292969 30.753906 61.347656 C 30.734375 61.402344 30.621094 61.472656 30.890625 61.511719 C 29.300781 61.664062 29.988281 61.171875 28.242188 61.097656 C 28.476562 61.097656 29.125 61.25 28.746094 61.285156 C 28.582031 61.257812 28.386719 61.230469 28.214844 61.183594 C 28.066406 61.144531 27.925781 61.097656 27.789062 61.035156 C 26.632812 60.914062 27.949219 61.195312 27.445312 61.214844 C 27.070312 61.007812 26.867188 61.191406 26.351562 61.15625 L 26.371094 61.019531 C 26.207031 60.980469 26.082031 60.957031 25.980469 60.9375 C 25.902344 60.921875 25.824219 60.910156 25.746094 60.902344 C 25.671875 60.894531 25.601562 60.910156 25.539062 60.949219 C 25.457031 61 25.386719 61.054688 24.808594 60.863281 L 25.347656 60.792969 C 25.140625 60.757812 24.933594 60.738281 24.726562 60.695312 C 24.78125 60.65625 24.835938 60.621094 24.890625 60.578125 C 24.628906 60.554688 24.371094 60.511719 24.117188 60.441406 C 23.867188 60.371094 23.625 60.28125 23.390625 60.171875 C 23.507812 60.316406 23.234375 60.382812 22.667969 60.195312 C 22.3125 59.976562 22.921875 60.160156 22.132812 59.867188 C 22.40625 59.828125 22.652344 59.898438 22.867188 60.074219 C 22.917969 60.042969 23.074219 60.054688 23.121094 60.023438 C 22.703125 59.824219 22.273438 59.65625 21.832031 59.515625 C 21.933594 59.558594 22.03125 59.605469 22.125 59.664062 C 21.925781 59.621094 21.726562 59.578125 21.527344 59.527344 L 20.933594 59.363281 C 20.78125 59.238281 20.933594 59.261719 21.089844 59.289062 C 20.839844 59.21875 20.59375 59.136719 20.347656 59.039062 C 20.480469 58.980469 20.507812 58.875 20.992188 59.039062 C 20.617188 58.925781 20.269531 58.78125 19.910156 58.640625 C 19.859375 58.566406 19.449219 58.25 19.601562 58.28125 C 19.28125 58.082031 18.945312 57.914062 18.59375 57.78125 C 18.199219 57.609375 17.832031 57.390625 17.496094 57.125 C 17.390625 57.09375 17.296875 57.050781 17.207031 56.988281 C 17.046875 56.867188 16.898438 56.746094 16.75 56.621094 C 16.605469 56.5 16.464844 56.359375 16.316406 56.230469 C 16.167969 56.101562 16.011719 55.976562 15.84375 55.851562 C 15.671875 55.710938 15.488281 55.582031 15.300781 55.464844 C 15.210938 55.292969 15.113281 55.132812 15.035156 54.957031 C 14.46875 54.480469 15.390625 55.648438 14.445312 54.847656 C 13.769531 54.277344 14.328125 54.5 14.152344 54.242188 C 13.90625 54.089844 13.667969 53.921875 13.441406 53.738281 C 13.148438 53.492188 12.90625 53.199219 12.71875 52.863281 C 12.890625 53.046875 13.007812 53.222656 13.179688 53.402344 Z M 8.511719 45.574219 C 8.550781 45.652344 8.621094 45.761719 8.679688 45.886719 C 8.738281 45.976562 8.769531 46.074219 8.769531 46.183594 C 8.550781 46.054688 8.5625 45.878906 8.511719 45.574219 Z M 7.636719 31.699219 C 7.625 31.894531 7.574219 32.082031 7.476562 32.253906 C 7.507812 32.0625 7.5625 31.878906 7.636719 31.699219 Z M 38.761719 14.175781 L 38.742188 14.175781 C 38.363281 14 38.496094 14.0625 38.761719 14.183594 Z M 39.554688 14.53125 C 39.640625 14.542969 39.640625 14.53125 39.613281 14.492188 C 39.457031 14.46875 39.304688 14.421875 39.164062 14.34375 C 39.273438 14.449219 39.402344 14.515625 39.554688 14.539062 Z M 36.585938 61.878906 L 36.414062 61.878906 C 36.773438 61.757812 36.679688 61.816406 36.585938 61.878906 Z M 36.585938 61.878906 " fill-opacity="1" fill-rule="nonzero"/></g><path fill="#231f20" d="M 7.476562 33.3125 C 7.457031 33.347656 7.425781 33.367188 7.390625 33.375 C 7.398438 33.449219 7.425781 33.453125 7.476562 33.3125 Z M 7.476562 33.3125 " fill-opacity="1" fill-rule="nonzero"/><path fill="#231f20" d="M 17.449219 57.109375 L 17.472656 57.125 C 17.484375 57.128906 17.496094 57.128906 17.507812 57.125 Z M 17.449219 57.109375 " fill-opacity="1" fill-rule="nonzero"/><path fill="#231f20" d="M 26.609375 14.402344 C 26.5 14.414062 26.386719 14.410156 26.277344 14.390625 C 26.273438 14.425781 26.351562 14.441406 26.609375 14.402344 Z M 26.609375 14.402344 " fill-opacity="1" fill-rule="nonzero"/><path fill="#231f20" d="M 43.765625 16.382812 C 43.605469 16.289062 43.4375 16.210938 43.269531 16.125 C 43.417969 16.203125 43.550781 16.300781 43.667969 16.421875 C 43.683594 16.386719 43.617188 16.289062 43.765625 16.382812 Z M 43.765625 16.382812 " fill-opacity="1" fill-rule="nonzero"/><path fill="#231f20" d="M 47.039062 19.953125 C 47.109375 19.996094 47.164062 20.070312 47.226562 20.109375 L 47.257812 20.050781 C 47.011719 19.816406 46.808594 19.691406 47.039062 19.953125 Z M 47.039062 19.953125 " fill-opacity="1" fill-rule="nonzero"/><path fill="#231f20" d="M 43.957031 17.046875 C 43.941406 17.105469 44.011719 17.175781 44.128906 17.253906 C 44.1875 17.289062 44.257812 17.332031 44.332031 17.375 L 44.566406 17.523438 L 44.511719 17.484375 C 44.601562 17.449219 44.558594 17.386719 44.441406 17.292969 C 44.285156 17.199219 44.125 17.117188 43.957031 17.046875 Z M 43.957031 17.046875 " fill-opacity="1" fill-rule="nonzero"/><path fill="#231f20" d="M 44.640625 17.570312 C 44.738281 17.632812 44.839844 17.703125 44.929688 17.773438 C 45.003906 17.746094 44.820312 17.679688 44.640625 17.570312 Z M 44.640625 17.570312 " fill-opacity="1" fill-rule="nonzero"/><path fill="#231f20" d="M 40.597656 14.886719 C 40.753906 14.988281 40.761719 14.796875 40.839844 14.886719 C 40.960938 14.859375 40.664062 14.773438 40.460938 14.734375 C 40.359375 14.714844 40.273438 14.714844 40.273438 14.734375 C 40.273438 14.757812 40.359375 14.796875 40.597656 14.886719 Z M 40.597656 14.886719 " fill-opacity="1" fill-rule="nonzero"/><path fill="#231f20" d="M 44.007812 17.53125 L 43.972656 17.339844 L 43.730469 17.320312 Z M 44.007812 17.53125 " fill-opacity="1" fill-rule="nonzero"/><path fill="#231f20" d="M 41.472656 15.933594 L 41.996094 16.246094 C 41.996094 16.222656 42.074219 16.246094 42.164062 16.28125 C 41.832031 16.105469 41.480469 15.890625 41.472656 15.933594 Z M 41.472656 15.933594 " fill-opacity="1" fill-rule="nonzero"/><path fill="#231f20" d="M 42.164062 16.28125 C 42.304688 16.367188 42.449219 16.4375 42.601562 16.5 C 42.457031 16.417969 42.3125 16.34375 42.164062 16.28125 Z M 42.164062 16.28125 " fill-opacity="1" fill-rule="nonzero"/><path fill="#231f20" d="M 43.292969 17.121094 L 43.15625 17 L 42.792969 16.773438 C 42.957031 16.890625 43.128906 16.996094 43.292969 17.121094 Z M 43.292969 17.121094 " fill-opacity="1" fill-rule="nonzero"/><path fill="#231f20" d="M 35.328125 13.804688 L 34.667969 13.726562 C 34.59375 13.761719 34.765625 13.820312 35.011719 13.847656 C 35.171875 13.84375 35.417969 13.875 35.328125 13.804688 Z M 35.328125 13.804688 " fill-opacity="1" fill-rule="nonzero"/><path fill="#231f20" d="M 37.171875 14.648438 C 37.074219 14.601562 36.992188 14.539062 36.921875 14.457031 L 36.859375 14.621094 Z M 37.171875 14.648438 " fill-opacity="1" fill-rule="nonzero"/><path fill="#231f20" d="M 35.316406 14.238281 C 35.242188 14.273438 34.363281 14.210938 35.175781 14.34375 C 35.25 14.304688 35.894531 14.394531 35.316406 14.238281 Z M 35.316406 14.238281 " fill-opacity="1" fill-rule="nonzero"/><path fill="#231f20" d="M 25.53125 14.121094 L 25.695312 14.078125 L 25.613281 13.804688 Z M 25.53125 14.121094 " fill-opacity="1" fill-rule="nonzero"/><path fill="#231f20" d="M 17.914062 18.085938 C 18.589844 17.734375 17.96875 17.832031 18.597656 17.539062 C 18.710938 17.386719 18.085938 17.78125 18.210938 17.632812 C 17.859375 17.941406 17.632812 18.046875 17.914062 18.085938 Z M 17.914062 18.085938 " fill-opacity="1" fill-rule="nonzero"/><path fill="#231f20" d="M 18.207031 17.632812 C 18.265625 17.582031 18.324219 17.527344 18.382812 17.46875 C 18.320312 17.515625 18.261719 17.570312 18.207031 17.632812 Z M 18.207031 17.632812 " fill-opacity="1" fill-rule="nonzero"/><g clip-path="url(#e5738cbc9b)"><path fill="#231f20" d="M 55.433594 39.199219 C 55.472656 39.027344 55.488281 38.851562 55.515625 38.679688 L 55.410156 39.011719 C 55.417969 39.074219 55.425781 39.136719 55.433594 39.199219 Z M 55.433594 39.199219 " fill-opacity="1" fill-rule="nonzero"/></g><g clip-path="url(#9b214997ec)"><path fill="#231f20" d="M 55.253906 38.199219 L 55.441406 38.078125 L 55.285156 37.765625 C 55.300781 37.914062 55.289062 38.054688 55.253906 38.199219 Z M 55.253906 38.199219 " fill-opacity="1" fill-rule="nonzero"/></g><path fill="#231f20" d="M 8.457031 44.167969 L 8.40625 44.144531 C 8.390625 44.289062 8.410156 44.429688 8.460938 44.5625 Z M 8.457031 44.167969 " fill-opacity="1" fill-rule="nonzero"/><path fill="#231f20" d="M 10.992188 50.226562 L 10.933594 50.128906 L 10.910156 50.394531 Z M 10.992188 50.226562 " fill-opacity="1" fill-rule="nonzero"/><path fill="#231f20" d="M 14.597656 54.382812 C 14.4375 54.226562 14.230469 54.058594 14.082031 53.890625 C 14.433594 54.230469 14.496094 54.570312 14.597656 54.382812 Z M 14.597656 54.382812 " fill-opacity="1" fill-rule="nonzero"/><path stroke-linecap="butt" transform="matrix(1.63916, 0, 0, 1.63916, 17.846073, 20.708629)" fill="none" stroke-linejoin="miter" d="M 5.336682 6.728844 L 6.761764 6.728844 L 6.761764 9.760122 C 6.761764 10.007963 6.544904 10.198609 6.297064 10.198609 L 4.264296 10.198609 C 4.035521 10.198609 3.844874 10.007963 3.844874 9.779187 L 3.844874 1.700545 C 3.844874 1.452704 4.035521 1.242993 4.283361 1.242993 L 6.277999 1.242993 C 6.544904 1.242993 6.761764 1.452704 6.761764 1.724376 L 6.761764 2.394021 L 9.518988 2.394021 L 9.518988 1.724376 C 9.518988 -0.0796162 8.062926 -1.52138 6.277999 -1.52138 L 4.283361 -1.52138 C 2.500817 -1.52138 1.061437 -0.0796162 1.061437 1.700545 L 1.061437 9.779187 C 1.061437 11.542666 2.500817 12.982047 4.264296 12.982047 L 6.297064 12.982047 C 8.081991 12.982047 9.518988 11.525985 9.518988 9.760122 L 9.538053 3.947789 L 5.336682 3.947789 Z M 14.082587 10.105669 L 17.037607 10.105669 L 17.592864 12.982047 L 20.412048 12.982047 L 17.630994 -1.540444 L 16.213061 -1.540444 L 16.170165 -1.52138 L 15.557714 -1.52138 L 15.538649 -1.540444 L 14.118333 -1.540444 L 14.118333 -1.52138 L 10.496051 12.982047 L 13.370046 12.982047 Z M 15.74836 3.390149 L 16.49903 7.324614 L 14.771297 7.324614 Z M 29.05548 -1.52138 L 21.36528 -1.540444 L 21.36528 12.982047 L 29.05548 12.982047 L 29.05548 10.198609 L 24.146335 10.198609 L 24.146335 6.728844 L 27.313449 6.728844 L 27.313449 3.947789 L 24.146335 3.947789 L 24.146335 1.242993 L 29.05548 1.242993 Z M 28.824321 -4.759986 L 28.824321 -6.985783 L 26.600908 -6.985783 L 26.600908 -4.759986 Z M 24.780234 -4.759986 L 24.780234 -6.985783 L 22.554437 -6.985783 L 22.554437 -4.759986 Z M 30.011095 12.982047 L 37.701295 12.982047 L 37.701295 10.198609 L 32.794533 10.198609 L 32.794533 -1.540444 L 30.011095 -1.540444 Z M 48.167784 -1.540444 L 48.167784 3.947789 L 45.274725 3.947789 L 45.274725 -1.540444 L 42.49367 -1.540444 L 42.49367 12.982047 L 45.274725 12.982047 L 45.274725 6.728844 L 48.167784 6.728844 L 48.167784 12.982047 L 50.948839 12.982047 L 50.948839 -1.540444 Z M 57.142464 -1.478484 L 55.128761 -1.478484 C 53.362899 -1.478484 51.906837 -0.0414869 51.906837 1.74344 L 51.906837 9.798251 C 51.906837 11.580796 53.362899 13.017793 55.128761 13.017793 L 57.142464 13.017793 C 58.925008 13.017793 60.364389 11.580796 60.364389 9.798251 L 60.364389 1.74344 C 60.364389 -0.0414869 58.925008 -1.478484 57.142464 -1.478484 Z M 57.604782 9.798251 C 57.604782 10.046092 57.390305 10.236738 57.142464 10.236738 L 55.128761 10.236738 C 54.880921 10.236738 54.687892 10.046092 54.687892 9.798251 L 54.687892 1.74344 C 54.687892 1.490834 54.880921 1.27874 55.128761 1.27874 L 57.142464 1.27874 C 57.390305 1.27874 57.604782 1.490834 57.604782 1.74344 Z M 67.265789 6.728844 L 67.265789 3.947789 L 64.101059 3.947789 L 64.101059 1.242993 L 69.007821 1.242993 L 69.007821 -1.52138 L 61.320004 -1.52138 L 61.320004 12.982047 L 64.101059 12.982047 L 64.101059 6.728844 Z M 76.48831 -1.540444 L 74.705766 2.165245 L 72.901774 -1.540444 L 69.965819 -1.540444 L 69.965819 12.982047 L 72.746874 12.982047 L 72.746874 4.462535 L 74.72483 8.513771 L 76.638444 4.54356 L 76.638444 12.982047 L 79.419498 12.982047 L 79.419498 -1.540444 Z M 83.964032 10.105669 L 86.919052 10.105669 L 87.476693 12.982047 L 90.293494 12.982047 L 87.512439 -1.540444 L 86.094506 -1.540444 L 86.051611 -1.52138 L 85.439159 -1.52138 L 85.420095 -1.540444 L 84.002162 -1.540444 L 84.002162 -1.52138 L 80.377497 12.982047 L 83.251491 12.982047 Z M 85.629806 3.390149 L 86.380476 7.324614 L 84.652743 7.324614 Z M 96.158254 -1.540444 L 96.158254 2.529857 L 94.182681 -1.540444 L 91.246726 -1.540444 L 91.246726 12.982047 L 94.02778 12.982047 L 94.02778 4.462535 L 96.158254 8.83787 L 96.158254 12.982047 L 98.936926 12.982047 L 98.936926 -1.540444 Z M 96.158254 -1.540444 " stroke="#231f20" stroke-width="0.551684" stroke-opacity="1" stroke-miterlimit="4"/><g fill="#000000" fill-opacity="1"><g transform="translate(61.567833, 55.326996)"><g><path d="M 2.523438 -2.660156 L 2.523438 -3.839844 L 1.179688 -3.839844 L 1.179688 -4.988281 L 3.261719 -4.988281 L 3.261719 -6.160156 L 0 -6.160156 L 0 -0.0078125 L 1.179688 -0.0078125 L 1.179688 -2.660156 Z M 2.523438 -2.660156 "/></g></g></g><g fill="#000000" fill-opacity="1"><g transform="translate(65.238205, 55.326996)"><g><path d="M 3.191406 -2.472656 C 3.183594 -2.785156 3.078125 -3.078125 2.890625 -3.304688 C 3.132812 -3.597656 3.273438 -3.972656 3.273438 -4.394531 C 3.273438 -5.355469 2.554688 -6.070312 1.546875 -6.152344 L 0 -6.144531 L 0 0.0078125 L 1.179688 0.0078125 L 1.179688 -2.644531 L 1.824219 -2.644531 C 1.929688 -2.644531 2.011719 -2.5625 2.011719 -2.464844 L 2.027344 0.0078125 L 3.199219 0.0078125 Z M 1.351562 -3.824219 L 1.1875 -3.824219 L 1.1875 -4.980469 L 1.351562 -4.980469 C 1.472656 -4.980469 2.089844 -4.949219 2.089844 -4.394531 C 2.089844 -3.867188 1.53125 -3.824219 1.351562 -3.824219 Z M 1.351562 -3.824219 "/></g></g></g><g fill="#000000" fill-opacity="1"><g transform="translate(68.916711, 55.326996)"><g><path d="M 2.222656 -6.144531 L 1.367188 -6.144531 C 0.617188 -6.144531 0 -5.535156 0 -4.777344 L 0 -1.359375 C 0 -0.601562 0.617188 0.0078125 1.367188 0.0078125 L 2.222656 0.0078125 C 2.980469 0.0078125 3.589844 -0.601562 3.589844 -1.359375 L 3.589844 -4.777344 C 3.589844 -5.535156 2.980469 -6.144531 2.222656 -6.144531 Z M 2.417969 -1.359375 C 2.417969 -1.253906 2.328125 -1.171875 2.222656 -1.171875 L 1.367188 -1.171875 C 1.261719 -1.171875 1.179688 -1.253906 1.179688 -1.359375 L 1.179688 -4.777344 C 1.179688 -4.882812 1.261719 -4.972656 1.367188 -4.972656 L 2.222656 -4.972656 C 2.328125 -4.972656 2.417969 -4.882812 2.417969 -4.777344 Z M 2.417969 -1.359375 "/></g></g></g><g fill="#000000" fill-opacity="1"><g transform="translate(72.912614, 55.326996)"><g><path d="M 2.082031 -6.167969 L 2.082031 -4.445312 L 1.246094 -6.167969 L 0 -6.167969 L 0 -0.0078125 L 1.179688 -0.0078125 L 1.179688 -3.621094 L 2.082031 -1.765625 L 2.082031 -0.0078125 L 3.261719 -0.0078125 L 3.261719 -6.167969 Z M 2.082031 -6.167969 "/></g></g></g><g fill="#000000" fill-opacity="1"><g transform="translate(76.582986, 55.326996)"><g><path d="M 0 -6.144531 L 0 -4.972656 L 1.578125 -4.972656 L 1.578125 0.0078125 L 2.75 0.0078125 L 2.75 -4.972656 L 4.328125 -4.972656 L 4.328125 -6.144531 L 2.75 -6.144531 L 2.75 -6.152344 L 1.578125 -6.152344 L 1.578125 -6.144531 Z M 0 -6.144531 "/></g></g></g><g fill="#000000" fill-opacity="1"><g transform="translate(81.319469, 55.326996)"><g><path d="M 2.472656 -3.824219 L 0 -3.824219 L 0 -2.644531 L 2.472656 -2.644531 Z M 2.472656 -3.824219 "/></g></g></g><g fill="#000000" fill-opacity="1"><g transform="translate(84.200427, 55.326996)"><g><path d="M 3.261719 -6.160156 L 0 -6.167969 L 0 -0.0078125 L 3.261719 -0.0078125 L 3.261719 -1.1875 L 1.179688 -1.1875 L 1.179688 -2.660156 L 2.523438 -2.660156 L 2.523438 -3.839844 L 1.179688 -3.839844 L 1.179688 -4.988281 L 3.261719 -4.988281 Z M 3.261719 -6.160156 "/></g></g></g><g fill="#000000" fill-opacity="1"><g transform="translate(87.870799, 55.326996)"><g><path d="M 2.082031 -6.167969 L 2.082031 -4.445312 L 1.246094 -6.167969 L 0 -6.167969 L 0 -0.0078125 L 1.179688 -0.0078125 L 1.179688 -3.621094 L 2.082031 -1.765625 L 2.082031 -0.0078125 L 3.261719 -0.0078125 L 3.261719 -6.167969 Z M 2.082031 -6.167969 "/></g></g></g><g fill="#000000" fill-opacity="1"><g transform="translate(91.541172, 55.326996)"><g><path d="M 2.222656 -6.160156 L 0 -6.160156 L 0 -0.0078125 L 2.222656 -0.0078125 C 2.980469 -0.0078125 3.589844 -0.625 3.589844 -1.375 L 3.589844 -4.792969 C 3.589844 -5.550781 2.980469 -6.160156 2.222656 -6.160156 Z M 2.417969 -1.375 C 2.417969 -1.269531 2.328125 -1.1875 2.222656 -1.1875 L 1.179688 -1.1875 L 1.179688 -4.988281 L 2.222656 -4.988281 C 2.328125 -4.988281 2.417969 -4.898438 2.417969 -4.792969 Z M 2.417969 -1.375 "/></g></g></g><g fill="#000000" fill-opacity="1"><g transform="translate(95.537075, 55.326996)"><g/></g></g><g fill="#000000" fill-opacity="1"><g transform="translate(97.164736, 55.326996)"><g><path d="M 2.222656 -6.160156 L 0 -6.160156 L 0 -0.0078125 L 2.222656 -0.0078125 C 2.980469 -0.0078125 3.589844 -0.625 3.589844 -1.375 L 3.589844 -4.792969 C 3.589844 -5.550781 2.980469 -6.160156 2.222656 -6.160156 Z M 2.417969 -1.375 C 2.417969 -1.269531 2.328125 -1.1875 2.222656 -1.1875 L 1.179688 -1.1875 L 1.179688 -4.988281 L 2.222656 -4.988281 C 2.328125 -4.988281 2.417969 -4.898438 2.417969 -4.792969 Z M 2.417969 -1.375 "/></g></g></g><g fill="#000000" fill-opacity="1"><g transform="translate(101.160639, 55.326996)"><g><path d="M 3.261719 -6.160156 L 0 -6.167969 L 0 -0.0078125 L 3.261719 -0.0078125 L 3.261719 -1.1875 L 1.179688 -1.1875 L 1.179688 -2.660156 L 2.523438 -2.660156 L 2.523438 -3.839844 L 1.179688 -3.839844 L 1.179688 -4.988281 L 3.261719 -4.988281 Z M 3.261719 -6.160156 "/></g></g></g><g fill="#000000" fill-opacity="1"><g transform="translate(104.831011, 55.326996)"><g><path d="M 2.988281 -6.152344 L 1.96875 -2.027344 L 1.1875 -6.152344 L 0 -6.152344 L 1.15625 0.0078125 L 2.6875 0.0078125 L 4.199219 -6.152344 Z M 2.988281 -6.152344 "/></g></g></g><g fill="#000000" fill-opacity="1"><g transform="translate(109.437283, 55.326996)"><g><path d="M 3.261719 -6.160156 L 0 -6.167969 L 0 -0.0078125 L 3.261719 -0.0078125 L 3.261719 -1.1875 L 1.179688 -1.1875 L 1.179688 -2.660156 L 2.523438 -2.660156 L 2.523438 -3.839844 L 1.179688 -3.839844 L 1.179688 -4.988281 L 3.261719 -4.988281 Z M 3.261719 -6.160156 "/></g></g></g><g fill="#000000" fill-opacity="1"><g transform="translate(113.107656, 55.326996)"><g><path d="M 0 -0.0078125 L 3.261719 -0.0078125 L 3.261719 -1.1875 L 1.179688 -1.1875 L 1.179688 -6.167969 L 0 -6.167969 Z M 0 -0.0078125 "/></g></g></g><g fill="#000000" fill-opacity="1"><g transform="translate(116.778028, 55.326996)"><g><path d="M 2.222656 -6.144531 L 1.367188 -6.144531 C 0.617188 -6.144531 0 -5.535156 0 -4.777344 L 0 -1.359375 C 0 -0.601562 0.617188 0.0078125 1.367188 0.0078125 L 2.222656 0.0078125 C 2.980469 0.0078125 3.589844 -0.601562 3.589844 -1.359375 L 3.589844 -4.777344 C 3.589844 -5.535156 2.980469 -6.144531 2.222656 -6.144531 Z M 2.417969 -1.359375 C 2.417969 -1.253906 2.328125 -1.171875 2.222656 -1.171875 L 1.367188 -1.171875 C 1.261719 -1.171875 1.179688 -1.253906 1.179688 -1.359375 L 1.179688 -4.777344 C 1.179688 -4.882812 1.261719 -4.972656 1.367188 -4.972656 L 2.222656 -4.972656 C 2.328125 -4.972656 2.417969 -4.882812 2.417969 -4.777344 Z M 2.417969 -1.359375 "/></g></g></g><g fill="#000000" fill-opacity="1"><g transform="translate(120.773931, 55.326996)"><g><path d="M 1.351562 -2.644531 C 2.464844 -2.644531 3.273438 -3.378906 3.273438 -4.394531 C 3.273438 -5.355469 2.554688 -6.070312 1.546875 -6.152344 L 0 -6.152344 L 0 0.0078125 L 1.179688 0.0078125 L 1.179688 -2.644531 Z M 1.1875 -4.980469 L 1.351562 -4.980469 C 1.472656 -4.980469 2.089844 -4.949219 2.089844 -4.394531 C 2.089844 -3.867188 1.53125 -3.824219 1.351562 -3.824219 L 1.1875 -3.824219 Z M 1.1875 -4.980469 "/></g></g></g><g fill="#000000" fill-opacity="1"><g transform="translate(124.452437, 55.326996)"><g><path d="M 3.261719 -6.160156 L 0 -6.167969 L 0 -0.0078125 L 3.261719 -0.0078125 L 3.261719 -1.1875 L 1.179688 -1.1875 L 1.179688 -2.660156 L 2.523438 -2.660156 L 2.523438 -3.839844 L 1.179688 -3.839844 L 1.179688 -4.988281 L 3.261719 -4.988281 Z M 3.261719 -6.160156 "/></g></g></g><g fill="#000000" fill-opacity="1"><g transform="translate(128.122809, 55.326996)"><g><path d="M 3.191406 -2.472656 C 3.183594 -2.785156 3.078125 -3.078125 2.890625 -3.304688 C 3.132812 -3.597656 3.273438 -3.972656 3.273438 -4.394531 C 3.273438 -5.355469 2.554688 -6.070312 1.546875 -6.152344 L 0 -6.144531 L 0 0.0078125 L 1.179688 0.0078125 L 1.179688 -2.644531 L 1.824219 -2.644531 C 1.929688 -2.644531 2.011719 -2.5625 2.011719 -2.464844 L 2.027344 0.0078125 L 3.199219 0.0078125 Z M 1.351562 -3.824219 L 1.1875 -3.824219 L 1.1875 -4.980469 L 1.351562 -4.980469 C 1.472656 -4.980469 2.089844 -4.949219 2.089844 -4.394531 C 2.089844 -3.867188 1.53125 -3.824219 1.351562 -3.824219 Z M 1.351562 -3.824219 "/></g></g></g></svg>